<?xml version="1.0" encoding="UTF-8" standalone="no"?>
<svg
   xmlns:dc="http://purl.org/dc/elements/1.1/"
   xmlns:cc="http://creativecommons.org/ns#"
   xmlns:rdf="http://www.w3.org/1999/02/22-rdf-syntax-ns#"
   xmlns:svg="http://www.w3.org/2000/svg"
   xmlns="http://www.w3.org/2000/svg"
   xmlns:sodipodi="http://sodipodi.sourceforge.net/DTD/sodipodi-0.dtd"
   xmlns:inkscape="http://www.inkscape.org/namespaces/inkscape"
   version="1.1"
   width="210.00mm"
   height="297.00mm"
   viewBox="0 0 210.00 297.00"
   id="svg2306"
   sodipodi:docname="toucan_head_and_neck_think_beak.blend_page8.svg"
   inkscape:version="0.92.5 (2060ec1f9f, 2020-04-08)">
  <metadata
     id="metadata2312">
    <rdf:RDF>
      <cc:Work
         rdf:about="">
        <dc:format>image/svg+xml</dc:format>
        <dc:type
           rdf:resource="http://purl.org/dc/dcmitype/StillImage" />
      </cc:Work>
    </rdf:RDF>
  </metadata>
  <defs
     id="defs2310" />
  <sodipodi:namedview
     pagecolor="#ffffff"
     bordercolor="#666666"
     borderopacity="1"
     objecttolerance="10"
     gridtolerance="10"
     guidetolerance="10"
     inkscape:pageopacity="0"
     inkscape:pageshadow="2"
     inkscape:window-width="1279"
     inkscape:window-height="1395"
     id="namedview2308"
     showgrid="false"
     inkscape:zoom="0.4204826"
     inkscape:cx="148.86323"
     inkscape:cy="252.78352"
     inkscape:window-x="1280"
     inkscape:window-y="0"
     inkscape:window-maximized="0"
     inkscape:current-layer="svg2306" />
  <style
     type="text/css"
     id="style2090">
    path {
        fill: none;
        stroke-linecap: butt;
        stroke-linejoin: bevel;
        stroke-dasharray: none;
    }
    path.outer {
        stroke: #000000;
        stroke-dasharray: none;
        stroke-dashoffset: 0;
        stroke-width: 0.3;
        stroke-opacity: 1.0;
    }
    path.convex {
        stroke: #000000;
        stroke-dasharray: 0.50,1.00;
        stroke-dashoffset:0;
        stroke-width:0.2;
        stroke-opacity: 1.0
    }
    path.concave {
        stroke: #000000;
        stroke-dasharray: 1.00,0.50,0.20,0.50;
        stroke-dashoffset: 0;
        stroke-width: 0.2;
        stroke-opacity: 1.0
    }
    path.freestyle {
        stroke: #000000;
        stroke-dasharray: none;
        stroke-dashoffset: 0;
        stroke-width: 0.2;
        stroke-opacity: 1.0
    }
    path.outer_background {
        stroke: #ffffff;
        stroke-opacity: 1.0;
        stroke-width: 0.5
    }
    path.inner_background {
        stroke: #ffffff;
        stroke-opacity: 1.0;
        stroke-width: 0.2
    }
    path.sticker {
        fill: #e5e5e5;
        stroke: none;
        fill-opacity: 1.0;
    }
    path.arrow {
        fill: #000000;
    }
    text {
        font-style: normal;
        fill: #000000;
        fill-opacity: 1.0;
        stroke: none;
    }
    text, tspan {
        text-anchor:middle;
    }
    </style>
  <g
     id="g60"
     transform="translate(-121.69528,-3.3877701)">
    <text
       id="text28"
       style="font-style:normal;font-size:5px;text-anchor:middle;fill:#000000;fill-opacity:1;stroke:none"
       x="151.63385"
       y="31.973347">
      <tspan
         style="text-anchor:middle"
         id="tspan26">[YA] Yellow</tspan>
    </text>
    <path
       style="fill:#e5e5e5;fill-opacity:1;stroke:none;stroke-linecap:butt;stroke-linejoin:bevel;stroke-dasharray:none"
       inkscape:connector-curvature="0"
       id="path30"
       d="m 137.02493,47.42157 -5,-2.886757 2e-5,-31.013564 4.99999,-2.886772 z m 33.30956,-15.869558 -0.62164,5.739927 -11.60235,5.121813 -4.66011,-3.408328 z M 141.76628,8.37558 l 5.3919,-2.064228 24.0846,19.539059 -0.90829,5.701601 z m -2.37554,1.119227 0.12615,-1.510889 1.00401,-0.473022 1.24538,0.864684 z m 14.05965,29.510617 -0.28908,5.766243 -11.2872,5.783394 -4.84918,-3.133491 z m -16.42545,-28.370947 0.1131,-1.511901 0.99992,-0.481695 1.25278,0.853926 z"
       class="sticker" />
    <path
       style="fill:none;stroke:#000000;stroke-width:0.2;stroke-linecap:butt;stroke-linejoin:bevel;stroke-dasharray:0.5, 1;stroke-dashoffset:0;stroke-opacity:1"
       inkscape:connector-curvature="0"
       id="path32"
       d="m 153.45039,39.005424 16.8841,-7.453412 m 0,0 L 141.76628,8.37558 m 0,0 11.68411,30.629844 M 141.76628,8.37558 139.39074,9.494807 m 0,0 14.05965,29.510617 m -14.05965,-29.510617 -2.3658,1.13967 m 0,0 16.42545,28.370947 m -16.42545,-28.370947 -10e-6,36.787093 m 0,0 16.42546,-8.416146"
       class="convex" />
    <path
       style="fill:none;stroke:#000000;stroke-width:0.30000001;stroke-linecap:butt;stroke-linejoin:bevel;stroke-dasharray:none;stroke-dashoffset:0;stroke-opacity:1"
       inkscape:connector-curvature="0"
       id="path34"
       d="m 169.71285,37.291939 -11.60235,5.121813 -4.66011,-3.408328 -0.28908,5.766243 -11.2872,5.783394 -4.84918,-3.133491 -5,-2.886757 2e-5,-31.013564 4.99999,-2.886772 0.1131,-1.511901 0.99992,-0.481695 1.25278,0.853926 0.12615,-1.510889 1.00401,-0.473022 1.24538,0.864684 5.3919,-2.064228 24.0846,19.539059 -0.90829,5.701601 z"
       class="outer" />
    <text
       id="text38"
       style="font-style:normal;font-size:4.5px;text-anchor:middle;fill:#000000;fill-opacity:1;stroke:none"
       transform="rotate(-90,82.576483,-53.548459)">
      <tspan
         style="text-anchor:middle"
         id="tspan36">2AG:2</tspan>
    </text>
    <text
       id="text42"
       style="font-style:normal;font-size:4.5px;text-anchor:middle;fill:#000000;fill-opacity:1;stroke:none"
       transform="rotate(156.18117,77.320905,35.161291)">
      <tspan
         style="text-anchor:middle"
         id="tspan40">YAA:2</tspan>
    </text>
    <text
       id="text46"
       style="font-style:normal;font-size:4.5px;text-anchor:middle;fill:#000000;fill-opacity:1;stroke:none"
       transform="rotate(39.051309,51.146243,230.45513)">
      <tspan
         style="text-anchor:middle"
         id="tspan44">2:5</tspan>
    </text>
    <text
       id="text50"
       style="font-style:normal;font-size:1.17999995px;text-anchor:middle;fill:#000000;fill-opacity:1;stroke:none"
       transform="rotate(-25.227334,89.725507,-309.51834)">
      <tspan
         style="text-anchor:middle"
         id="tspan48">YAC:1</tspan>
    </text>
    <text
       id="text54"
       style="font-style:normal;font-size:4.5px;text-anchor:middle;fill:#000000;fill-opacity:1;stroke:none"
       transform="rotate(152.87007,67.514154,39.578086)">
      <tspan
         style="text-anchor:middle"
         id="tspan52">YAA:4</tspan>
    </text>
    <text
       id="text58"
       style="font-style:normal;font-size:1.17999995px;text-anchor:middle;fill:#000000;fill-opacity:1;stroke:none"
       transform="rotate(-25.721676,90.627744,-297.52361)">
      <tspan
         style="text-anchor:middle"
         id="tspan56">YAC:2</tspan>
    </text>
  </g>
  <g
     transform="rotate(-89.49126,56.967437,67.912479)"
     id="g392">
    <text
       id="text342"
       style="font-style:normal;font-size:5px;text-anchor:middle;fill:#000000;fill-opacity:1;stroke:none"
       transform="rotate(90.324882)"
       x="89.348686"
       y="-100.92769">
      <tspan
         style="text-anchor:middle"
         id="tspan340">[YAB] Yellow</tspan>
    </text>
    <path
       style="fill:#e5e5e5;fill-opacity:1;stroke:none;stroke-linecap:butt;stroke-linejoin:bevel;stroke-dasharray:none"
       inkscape:connector-curvature="0"
       id="path344"
       d="m 91.046174,112.81277 -5.040646,-2.81519 -0.618092,-43.354436 4.958339,-2.957731 z m 22.239746,-49.127357 4.95833,2.957731 -0.61812,43.354456 -5.04065,2.81517 z"
       class="sticker" />
    <path
       style="fill:none;stroke:#000000;stroke-width:0.2;stroke-linecap:butt;stroke-linejoin:bevel;stroke-dasharray:0.5, 1;stroke-dashoffset:0;stroke-opacity:1"
       inkscape:connector-curvature="0"
       id="path346"
       d="m 90.345775,63.685413 0.700399,49.127357 m 21.539306,0 0.70044,-49.127357"
       class="convex" />
    <path
       style="fill:none;stroke:#000000;stroke-width:0.2;stroke-linecap:butt;stroke-linejoin:bevel;stroke-dasharray:1, 0.5, 0.2, 0.5;stroke-dashoffset:0;stroke-opacity:1"
       inkscape:connector-curvature="0"
       id="path348"
       d="m 101.81582,114.66243 3e-5,-51.411967"
       class="concave" />
    <path
       style="fill:none;stroke:#000000;stroke-width:0.30000001;stroke-linecap:butt;stroke-linejoin:bevel;stroke-dasharray:none;stroke-dashoffset:0;stroke-opacity:1"
       inkscape:connector-curvature="0"
       id="path350"
       d="m 101.81585,63.250463 11.47007,0.43495 4.95833,2.957731 -0.61812,43.354456 -5.04065,2.81517 -10.76966,1.84966 -10.769646,-1.84966 -5.040646,-2.81519 -0.618092,-43.354436 4.958339,-2.957731 z"
       class="outer" />
    <text
       id="text354"
       style="font-style:normal;font-size:4.5px;text-anchor:middle;fill:#000000;fill-opacity:1;stroke:none"
       transform="rotate(-90.816779,88.404346,-0.13152666)">
      <tspan
         style="text-anchor:middle"
         id="tspan352">2AD:3</tspan>
    </text>
    <g
       id="g362">
      <path
         style="fill:#000000;stroke-linecap:butt;stroke-linejoin:bevel;stroke-dasharray:none"
         inkscape:connector-curvature="0"
         id="path356"
         d="M 0,0 1,1 0,0.25 -1,1 Z"
         class="arrow"
         transform="matrix(-4.996409,0.189465,-0.189465,-4.996409,96.080814,63.467945)" />
      <text
         id="text360"
         style="font-style:normal;font-size:5px;text-anchor:middle;fill:#000000;fill-opacity:1;stroke:none"
         transform="translate(95.910293,60.971166)">
        <tspan
           style="text-anchor:middle"
           id="tspan358">1</tspan>
      </text>
    </g>
    <g
       id="g370">
      <path
         style="fill:#000000;stroke-linecap:butt;stroke-linejoin:bevel;stroke-dasharray:none"
         inkscape:connector-curvature="0"
         id="path364"
         d="M 0,0 1,1 0,0.25 -1,1 Z"
         class="arrow"
         transform="matrix(4.927849,0.846351,-0.846351,4.927849,96.430999,113.73761)" />
      <text
         id="text368"
         style="font-style:normal;font-size:5px;text-anchor:middle;fill:#000000;fill-opacity:1;stroke:none"
         transform="translate(95.669289,120.17267)">
        <tspan
           style="text-anchor:middle"
           id="tspan366">2</tspan>
      </text>
    </g>
    <text
       id="text374"
       style="font-style:normal;font-size:4.5px;text-anchor:middle;fill:#000000;fill-opacity:1;stroke:none"
       transform="rotate(90.816837,13.411572,100.24307)">
      <tspan
         style="text-anchor:middle"
         id="tspan372">2AE:4</tspan>
    </text>
    <g
       id="g382">
      <path
         style="fill:#000000;stroke-linecap:butt;stroke-linejoin:bevel;stroke-dasharray:none"
         inkscape:connector-curvature="0"
         id="path376"
         d="M 0,0 1,1 0,0.25 -1,1 Z"
         class="arrow"
         transform="matrix(-4.996409,-0.189467,0.189467,-4.996409,107.55088,63.467945)" />
      <text
         id="text380"
         style="font-style:normal;font-size:5px;text-anchor:middle;fill:#000000;fill-opacity:1;stroke:none"
         transform="translate(107.7214,60.971166)">
        <tspan
           style="text-anchor:middle"
           id="tspan378">3</tspan>
      </text>
    </g>
    <g
       id="g390">
      <path
         style="fill:#000000;stroke-linecap:butt;stroke-linejoin:bevel;stroke-dasharray:none"
         inkscape:connector-curvature="0"
         id="path384"
         d="M 0,0 1,1 0,0.25 -1,1 Z"
         class="arrow"
         transform="matrix(4.927849,-0.846347,0.846347,4.927849,107.20066,113.73761)" />
      <text
         id="text388"
         style="font-style:normal;font-size:5px;text-anchor:middle;fill:#000000;fill-opacity:1;stroke:none"
         transform="translate(107.96237,120.17267)">
        <tspan
           style="text-anchor:middle"
           id="tspan386">4</tspan>
      </text>
    </g>
  </g>
  <g
     transform="translate(-64.991602,50.074747)"
     id="g962">
    <text
       id="text924"
       style="font-style:normal;font-size:4.5009675px;text-anchor:middle;fill:#000000;fill-opacity:1;stroke:none;stroke-width:0.90019357"
       x="94.971069"
       y="34.262543">
      <tspan
         style="text-anchor:middle;stroke-width:0.90019357"
         id="tspan922">[YAA] Yellow</tspan>
    </text>
    <path
       style="fill:none;stroke:#000000;stroke-width:0.2;stroke-linecap:butt;stroke-linejoin:bevel;stroke-dasharray:0.5, 1;stroke-dashoffset:0;stroke-opacity:1"
       inkscape:connector-curvature="0"
       id="path926"
       d="M 95.125739,42.517181 92.397009,9.390946"
       class="convex" />
    <path
       style="fill:none;stroke:#000000;stroke-width:0.30000001;stroke-linecap:butt;stroke-linejoin:bevel;stroke-dasharray:none;stroke-dashoffset:0;stroke-opacity:1"
       inkscape:connector-curvature="0"
       id="path928"
       d="M 112.22147,35.562958 95.125739,42.517181 77.122455,38.45417 92.397009,9.390946 Z"
       class="outer" />
    <g
       id="g936">
      <path
         style="fill:#000000;stroke-linecap:butt;stroke-linejoin:bevel;stroke-dasharray:none"
         inkscape:connector-curvature="0"
         id="path930"
         d="M 0,0 1,1 0,0.25 -1,1 Z"
         class="arrow"
         transform="matrix(-2.326123,4.425963,-4.425963,-2.326123,84.759732,23.922558)" />
      <text
         id="text934"
         style="font-style:normal;font-size:5px;text-anchor:middle;fill:#000000;fill-opacity:1;stroke:none"
         transform="translate(80.776368,23.829068)">
        <tspan
           style="text-anchor:middle"
           id="tspan932">1</tspan>
      </text>
    </g>
    <g
       id="g944">
      <path
         style="fill:#000000;stroke-linecap:butt;stroke-linejoin:bevel;stroke-dasharray:none"
         inkscape:connector-curvature="0"
         id="path938"
         d="M 0,0 1,1 0,0.25 -1,1 Z"
         class="arrow"
         transform="matrix(4.877336,1.100726,-1.100726,4.877336,86.124097,40.485675)" />
      <text
         id="text942"
         style="font-style:normal;font-size:5px;text-anchor:middle;fill:#000000;fill-opacity:1;stroke:none"
         transform="translate(85.133445,46.875293)">
        <tspan
           style="text-anchor:middle"
           id="tspan940">2</tspan>
      </text>
    </g>
    <g
       id="g952">
      <path
         style="fill:#000000;stroke-linecap:butt;stroke-linejoin:bevel;stroke-dasharray:none"
         inkscape:connector-curvature="0"
         id="path946"
         d="M 0,0 1,1 0,0.25 -1,1 Z"
         class="arrow"
         transform="matrix(-3.019017,-3.985667,3.985667,-3.019017,102.30924,22.476966)" />
      <text
         id="text950"
         style="font-style:normal;font-size:5px;text-anchor:middle;fill:#000000;fill-opacity:1;stroke:none"
         transform="translate(105.89634,21.759833)">
        <tspan
           style="text-anchor:middle"
           id="tspan948">3</tspan>
      </text>
    </g>
    <g
       id="g960">
      <path
         style="fill:#000000;stroke-linecap:butt;stroke-linejoin:bevel;stroke-dasharray:none"
         inkscape:connector-curvature="0"
         id="path954"
         d="M 0,0 1,1 0,0.25 -1,1 Z"
         class="arrow"
         transform="matrix(4.631473,-1.884001,1.884001,4.631473,103.6736,39.040084)" />
      <text
         id="text958"
         style="font-style:normal;font-size:5px;text-anchor:middle;fill:#000000;fill-opacity:1;stroke:none"
         transform="translate(105.36921,45.208405)">
        <tspan
           style="text-anchor:middle"
           id="tspan956">4</tspan>
      </text>
    </g>
  </g>
  <text
     transform="rotate(0.92817059)"
     style="font-style:normal;font-size:5px;text-anchor:middle;fill:#000000;fill-opacity:1;stroke:none"
     id="text1034"
     x="122.28535"
     y="105.51386">
    <tspan
       id="tspan1032"
       style="text-anchor:middle">[Y] Yellow</tspan>
  </text>
  <path
     class="sticker"
     d="m 40.374812,133.7577 -3.603431,-4.5652 8.721337,-22.72245 5.702383,-0.90339 z m 10.820289,-28.19104 4.106753,-4.05807 17.9381,4.92131 1.46102,5.58558 z m 137.047559,-2.7373 5.73391,0.67497 9.6217,22.35607 -3.41827,4.70545 z m -23.22962,7.38229 1.23682,-5.63947 17.72729,-5.633666 4.26551,3.890846 z m -90.312066,1.80383 3.095934,-4.87324 14.879532,0.63079 2.672386,5.11779 z m 32.823176,-43.281273 2.61651,-5.146574 5.70886,-0.304309 3.1488,4.839252 z m 36.89245,43.176563 2.4659,-5.22042 14.84248,-1.22444 3.28806,4.74574 z m -25.41827,-43.788189 2.95307,-4.961124 5.71645,0.07611 2.81993,5.037984 z"
     id="path1036"
     inkscape:connector-curvature="0"
     style="fill:#e5e5e5;fill-opacity:1;stroke:none;stroke-linecap:butt;stroke-linejoin:bevel;stroke-dasharray:none" />
  <path
     class="convex"
     d="M 85.867977,135.29425 74.700974,112.01548 m 0,0 -24.702088,22.96311 m 1.196215,-29.41193 -1.196215,29.41193 m 35.869091,0.31566 9.480849,-22.40343 m 6.152694,18.25676 2.10045,-20.33809 m 15.39636,-42.686909 1.20601,60.380639 m 70.40804,3.66686 -2.36972,-29.34072 m -23.22962,7.38229 25.59934,21.95843 m -25.59934,-21.95843 -10.22856,23.7061 m -10.36788,-22.00698 10.36788,22.00698 m -18.69754,-23.75709 2.91088,20.23799 m -2.91088,-20.23799 -15.8826,18.34256"
     id="path1038"
     inkscape:connector-curvature="0"
     style="fill:none;stroke:#000000;stroke-width:0.2;stroke-linecap:butt;stroke-linejoin:bevel;stroke-dasharray:0.5, 1;stroke-dashoffset:0;stroke-opacity:1" />
  <path
     class="concave"
     d="m 74.700974,112.01548 -23.505873,-6.44882 m 44.153725,7.32416 -20.647852,-0.87534 M 51.195101,105.56666 40.374812,133.7577 m 61.126708,-2.61012 -6.152694,-18.25676 m 12.175324,-44.156613 11.47418,-0.611626 m 1.20601,60.380639 -12.68019,-59.769013 m 12.68019,59.769013 -16.60237,-17.69373 m 84.64069,-7.98013 -23.22962,7.38229 m 0,0 -20.59644,1.69912 m 55.7634,18.65508 -11.93734,-27.73649 m -43.82606,9.08141 -5.41878,18.48788 m -18.79348,-1.89543 10.28344,-60.227673 m -11.48945,-0.152966 11.48945,0.152966"
     id="path1040"
     inkscape:connector-curvature="0"
     style="fill:none;stroke:#000000;stroke-width:0.2;stroke-linecap:butt;stroke-linejoin:bevel;stroke-dasharray:1, 0.5, 0.2, 0.5;stroke-dashoffset:0;stroke-opacity:1" />
  <path
     class="outer"
     d="m 144.4166,111.91077 2.4659,-5.22042 14.84248,-1.22444 3.28806,4.74574 1.23682,-5.63947 17.72729,-5.633666 4.26551,3.890846 5.73391,0.67497 9.6217,22.35607 -3.41827,4.70545 -9.56762,1.60423 -35.8279,1.74767 -15.78666,-3.5191 -18.79348,-1.89543 -18.70282,2.64436 -15.633543,4.14667 -35.869091,-0.31566 -9.624074,-1.22089 -3.603431,-4.5652 8.721337,-22.72245 5.702383,-0.90339 4.106753,-4.05807 17.9381,4.92131 1.46102,5.58558 3.095934,-4.87324 14.879532,0.63079 2.672386,5.11779 8.253144,-2.08133 3.92218,-42.075283 2.61651,-5.146574 5.70886,-0.304309 3.1488,4.839252 2.95308,-4.961119 5.71645,0.07611 2.81993,5.037984 5.59916,41.885113 z"
     id="path1042"
     inkscape:connector-curvature="0"
     style="fill:none;stroke:#000000;stroke-width:0.30000001;stroke-linecap:butt;stroke-linejoin:bevel;stroke-dasharray:none;stroke-dashoffset:0;stroke-opacity:1" />
  <text
     transform="rotate(-69.0022)"
     style="font-style:normal;font-size:4.5px;text-anchor:middle;fill:#000000;fill-opacity:1;stroke:none"
     id="text1046"
     x="-95.3097"
     y="84.723343">
    <tspan
       id="tspan1044"
       style="text-anchor:middle">3AC:1</tspan>
  </text>
  <g
     id="g1054"
     transform="rotate(117.26625,118.00561,185.38926)">
    <path
       transform="matrix(-1.713084,-4.697376,4.697376,-1.713084,106.01376,273.49103)"
       class="arrow"
       d="M 0,0 1,1 0,0.25 -1,1 Z"
       id="path1048"
       inkscape:connector-curvature="0"
       style="fill:#000000;stroke-linecap:butt;stroke-linejoin:bevel;stroke-dasharray:none" />
    <text
       transform="translate(110.24139,273.94925)"
       style="font-style:normal;font-size:5px;text-anchor:middle;fill:#000000;fill-opacity:1;stroke:none"
       id="text1052">
      <tspan
         id="tspan1050"
         style="text-anchor:middle">1</tspan>
    </text>
  </g>
  <text
     transform="rotate(15.34161)"
     style="font-style:normal;font-size:4.5px;text-anchor:middle;fill:#000000;fill-opacity:1;stroke:none"
     id="text1058"
     x="89.488121"
     y="87.359955">
    <tspan
       id="tspan1056"
       style="text-anchor:middle">2AD:1</tspan>
  </text>
  <text
     transform="rotate(66.713757)"
     style="font-style:normal;font-size:4.5px;text-anchor:middle;fill:#000000;fill-opacity:1;stroke:none"
     id="text1062"
     x="183.96815"
     y="-133.15765">
    <tspan
       id="tspan1060"
       style="text-anchor:middle">3AA:1</tspan>
  </text>
  <g
     id="g1070"
     transform="rotate(117.26625,118.00561,185.38926)">
    <path
       transform="matrix(-2.994044,-4.00446,4.00446,-2.994044,34.532129,141.34632)"
       class="arrow"
       d="M 0,0 1,1 0,0.25 -1,1 Z"
       id="path1064"
       inkscape:connector-curvature="0"
       style="fill:#000000;stroke-linecap:butt;stroke-linejoin:bevel;stroke-dasharray:none" />
    <text
       transform="translate(38.136144,140.65168)"
       style="font-style:normal;font-size:5px;text-anchor:middle;fill:#000000;fill-opacity:1;stroke:none"
       id="text1068">
      <tspan
         id="tspan1066"
         style="text-anchor:middle">2</tspan>
    </text>
  </g>
  <text
     transform="rotate(-17.63007)"
     style="font-style:normal;font-size:4.5px;text-anchor:middle;fill:#000000;fill-opacity:1;stroke:none"
     id="text1074"
     x="136.07008"
     y="154.1127">
    <tspan
       id="tspan1072"
       style="text-anchor:middle">2AE:1</tspan>
  </text>
  <g
     id="g1082"
     transform="rotate(117.26625,118.00561,185.38926)">
    <path
       transform="matrix(4.637858,-1.868228,1.868228,4.637858,38.712767,240.25411)"
       class="arrow"
       d="M 0,0 1,1 0,0.25 -1,1 Z"
       id="path1076"
       inkscape:connector-curvature="0"
       style="fill:#000000;stroke-linecap:butt;stroke-linejoin:bevel;stroke-dasharray:none" />
    <text
       transform="translate(40.394173,246.42818)"
       style="font-style:normal;font-size:5px;text-anchor:middle;fill:#000000;fill-opacity:1;stroke:none"
       id="text1080">
      <tspan
         id="tspan1078"
         style="text-anchor:middle">3</tspan>
    </text>
  </g>
  <text
     transform="rotate(-3.0512464)"
     style="font-style:normal;font-size:4.5px;text-anchor:middle;fill:#000000;fill-opacity:1;stroke:none"
     id="text1086"
     x="109.45828"
     y="73.460182">
    <tspan
       id="tspan1084"
       style="text-anchor:middle">YAB:1</tspan>
  </text>
  <g
     id="g1094"
     transform="rotate(117.26625,118.00561,185.38926)">
    <path
       transform="matrix(-4.10174,2.859323,-2.859323,-4.10174,25.519327,215.86402)"
       class="arrow"
       d="M 0,0 1,1 0,0.25 -1,1 Z"
       id="path1088"
       inkscape:connector-curvature="0"
       style="fill:#000000;stroke-linecap:butt;stroke-linejoin:bevel;stroke-dasharray:none" />
    <text
       transform="translate(22.945938,214.17245)"
       style="font-style:normal;font-size:5px;text-anchor:middle;fill:#000000;fill-opacity:1;stroke:none"
       id="text1092">
      <tspan
         id="tspan1090"
         style="text-anchor:middle">4</tspan>
    </text>
  </g>
  <text
     transform="rotate(0.76277)"
     style="font-style:normal;font-size:4.5px;text-anchor:middle;fill:#000000;fill-opacity:1;stroke:none"
     id="text1098"
     x="125.63987"
     y="65.632355">
    <tspan
       id="tspan1096"
       style="text-anchor:middle">YAB:3</tspan>
  </text>
  <g
     transform="rotate(-63.950601,62.54628,-0.82575046)"
     id="g1428">
    <text
       id="text1386"
       style="font-style:normal;font-size:5px;text-anchor:middle;fill:#000000;fill-opacity:1;stroke:none"
       transform="rotate(65.833126)"
       x="117.93111"
       y="-39.56707">
      <tspan
         style="text-anchor:middle"
         id="tspan1384">[YAC] Yellow</tspan>
    </text>
    <path
       style="fill:#e5e5e5;fill-opacity:1;stroke:none;stroke-linecap:butt;stroke-linejoin:bevel;stroke-dasharray:none"
       inkscape:connector-curvature="0"
       id="path1388"
       d="m 80.321346,70.036109 5.761281,0.37536 22.679913,45.945051 -3.20572,4.80175 z m 20.864294,53.568231 -5.769283,0.22055 -27.295351,-43.362335 2.693645,-5.106628 z M 70.814651,75.355927 70.29519,72.203855 l 1.808196,-1.483053 2.989501,1.126155 z m 4.278236,-3.50897 0.603891,-3.136962 2.209805,-0.765369 2.414763,2.091483 z"
       class="sticker" />
    <path
       style="fill:none;stroke:#000000;stroke-width:0.2;stroke-linecap:butt;stroke-linejoin:bevel;stroke-dasharray:0.5, 1;stroke-dashoffset:0;stroke-opacity:1"
       inkscape:connector-curvature="0"
       id="path1390"
       d="m 70.814651,75.355927 30.370989,48.248413 m 4.37118,-2.44607 -25.235474,-51.122161"
       class="convex" />
    <path
       style="fill:none;stroke:#000000;stroke-width:0.2;stroke-linecap:butt;stroke-linejoin:bevel;stroke-dasharray:1, 0.5, 0.2, 0.5;stroke-dashoffset:0;stroke-opacity:1"
       inkscape:connector-curvature="0"
       id="path1392"
       d="M 103.75613,123.06912 75.092887,71.846957 m 0,0 -4.278236,3.50897 m 9.506695,-5.319818 -5.228459,1.810848"
       class="concave" />
    <path
       style="fill:none;stroke:#000000;stroke-width:0.30000001;stroke-linecap:butt;stroke-linejoin:bevel;stroke-dasharray:none;stroke-dashoffset:0;stroke-opacity:1"
       inkscape:connector-curvature="0"
       id="path1394"
       d="m 101.18564,123.60434 -5.769283,0.22055 -27.295351,-43.362335 2.693645,-5.106628 -0.519461,-3.152072 1.808196,-1.483053 2.989501,1.126155 0.603891,-3.136962 2.209805,-0.765369 2.414763,2.091483 5.761281,0.37536 22.679913,45.945051 -3.20572,4.80175 -1.80069,1.91085 z"
       class="outer" />
    <text
       id="text1398"
       style="font-style:normal;font-size:4.5px;text-anchor:middle;fill:#000000;fill-opacity:1;stroke:none"
       transform="rotate(63.727621,-29.706362,123.01024)">
      <tspan
         style="text-anchor:middle"
         id="tspan1396">2AG:1</tspan>
    </text>
    <text
       id="text1402"
       style="font-style:normal;font-size:4.5px;text-anchor:middle;fill:#000000;fill-opacity:1;stroke:none"
       transform="rotate(-122.18923,70.215707,26.447489)">
      <tspan
         style="text-anchor:middle"
         id="tspan1400">2:1</tspan>
    </text>
    <g
       id="g1410">
      <path
         style="fill:#000000;stroke-linecap:butt;stroke-linejoin:bevel;stroke-dasharray:none"
         inkscape:connector-curvature="0"
         id="path1404"
         d="M 0,0 1,1 0,0.25 -1,1 Z"
         class="arrow"
         transform="matrix(4.895016,-1.019222,1.019222,4.895016,102.47089,123.33673)" />
      <text
         id="text1408"
         style="font-style:normal;font-size:5px;text-anchor:middle;fill:#000000;fill-opacity:1;stroke:none"
         transform="translate(103.38819,129.74224)">
        <tspan
           style="text-anchor:middle"
           id="tspan1406">1</tspan>
      </text>
    </g>
    <text
       id="text1414"
       style="font-style:normal;font-size:2.49000001px;text-anchor:middle;fill:#000000;fill-opacity:1;stroke:none"
       transform="rotate(-39.358234,138.67928,-64.943372)">
      <tspan
         style="text-anchor:middle"
         id="tspan1412">YAD:1</tspan>
    </text>
    <text
       id="text1418"
       style="font-style:normal;font-size:2.49000001px;text-anchor:middle;fill:#000000;fill-opacity:1;stroke:none"
       transform="rotate(-19.103392,248.16991,-195.18024)">
      <tspan
         style="text-anchor:middle"
         id="tspan1416">YAD:2</tspan>
    </text>
    <g
       id="g1426">
      <path
         style="fill:#000000;stroke-linecap:butt;stroke-linejoin:bevel;stroke-dasharray:none"
         inkscape:connector-curvature="0"
         id="path1420"
         d="M 0,0 1,1 0,0.25 -1,1 Z"
         class="arrow"
         transform="matrix(3.429078,-3.638876,3.638876,3.429078,104.65648,122.11369)" />
      <text
         id="text1424"
         style="font-style:normal;font-size:5px;text-anchor:middle;fill:#000000;fill-opacity:1;stroke:none"
         transform="translate(107.93147,127.19987)">
        <tspan
           style="text-anchor:middle"
           id="tspan1422">2</tspan>
      </text>
    </g>
  </g>
  <g
     transform="rotate(-66.365153,60.496442,-27.567034)"
     id="g1808">
    <text
       id="text1766"
       style="font-style:normal;font-size:5px;text-anchor:middle;fill:#000000;fill-opacity:1;stroke:none"
       x="97.990868"
       y="13.166539"
       transform="rotate(64.993734)">
      <tspan
         style="text-anchor:middle"
         id="tspan1764">[YAD] Yellow</tspan>
    </text>
    <path
       style="fill:#e5e5e5;fill-opacity:1;stroke:none;stroke-linecap:butt;stroke-linejoin:bevel;stroke-dasharray:none"
       inkscape:connector-curvature="0"
       id="path1768"
       d="M 31.408065,131.08591 25.801343,129.70823 5,58.085437 8.996467,53.918715 Z m -12.033057,-80.949855 5.740334,0.617981 30.163515,68.210574 -3.40534,4.6623 z m 32.498509,73.490855 -1.512669,5.57181 -4.991382,1.31982 -4.069001,-4.09593 z m -10.573052,2.7957 -0.479173,5.75359 -4.670061,2.20147 -4.743166,-3.29176 z"
       class="sticker" />
    <path
       style="fill:none;stroke:#000000;stroke-width:0.2;stroke-linecap:butt;stroke-linejoin:bevel;stroke-dasharray:0.5, 1;stroke-dashoffset:0;stroke-opacity:1"
       inkscape:connector-curvature="0"
       id="path1770"
       d="m 8.996467,53.918715 22.411598,77.167195 m 20.465452,-7.459 -32.498509,-73.490855"
       class="convex" />
    <path
       style="fill:none;stroke:#000000;stroke-width:0.2;stroke-linecap:butt;stroke-linejoin:bevel;stroke-dasharray:1, 0.5, 0.2, 0.5;stroke-dashoffset:0;stroke-opacity:1"
       inkscape:connector-curvature="0"
       id="path1772"
       d="M 41.300465,126.42261 14.246996,52.195425 m 17.161069,78.890485 9.8924,-4.6633 m 0,0 10.573052,-2.7957"
       class="concave" />
    <path
       style="fill:none;stroke:#000000;stroke-width:0.30000001;stroke-linecap:butt;stroke-linejoin:bevel;stroke-dasharray:none;stroke-dashoffset:0;stroke-opacity:1"
       inkscape:connector-curvature="0"
       id="path1774"
       d="m 40.821292,132.1762 -4.670061,2.20147 -4.743166,-3.29176 -5.606722,-1.37768 L 5,58.085437 l 3.996467,-4.166722 5.250529,-1.72329 5.128012,-2.05937 5.740334,0.617981 30.163515,68.210574 -3.40534,4.6623 -1.512669,5.57181 -4.991382,1.31982 -4.069001,-4.09593 z"
       class="outer" />
    <text
       id="text1778"
       style="font-style:normal;font-size:4.5px;text-anchor:middle;fill:#000000;fill-opacity:1;stroke:none"
       transform="rotate(-106.1948,44.49286,39.116288)">
      <tspan
         style="text-anchor:middle"
         id="tspan1776">2AG:3</tspan>
    </text>
    <text
       id="text1782"
       style="font-style:normal;font-size:4.5px;text-anchor:middle;fill:#000000;fill-opacity:1;stroke:none"
       transform="rotate(66.144408,-48.20553,71.243468)">
      <tspan
         style="text-anchor:middle"
         id="tspan1780">2:4</tspan>
    </text>
    <g
       id="g1790">
      <path
         style="fill:#000000;stroke-linecap:butt;stroke-linejoin:bevel;stroke-dasharray:none"
         inkscape:connector-curvature="0"
         id="path1784"
         d="M 0,0 1,1 0,0.25 -1,1 Z"
         class="arrow"
         transform="matrix(-4.639833,1.863319,-1.863319,-4.639833,16.811002,51.16574)" />
      <text
         id="text1788"
         style="font-style:normal;font-size:5px;text-anchor:middle;fill:#000000;fill-opacity:1;stroke:none"
         transform="translate(15.134015,48.989887)">
        <tspan
           style="text-anchor:middle"
           id="tspan1786">1</tspan>
      </text>
    </g>
    <text
       id="text1794"
       style="font-style:normal;font-size:4.5px;text-anchor:middle;fill:#000000;fill-opacity:1;stroke:none"
       transform="rotate(165.1889,15.226888,65.989966)">
      <tspan
         style="text-anchor:middle"
         id="tspan1792">YAB:2</tspan>
    </text>
    <g
       id="g1802">
      <path
         style="fill:#000000;stroke-linecap:butt;stroke-linejoin:bevel;stroke-dasharray:none"
         inkscape:connector-curvature="0"
         id="path1796"
         d="M 0,0 1,1 0,0.25 -1,1 Z"
         class="arrow"
         transform="matrix(-4.750666,1.559221,-1.559221,-4.750666,11.621731,53.05707)" />
      <text
         id="text1800"
         style="font-style:normal;font-size:5px;text-anchor:middle;fill:#000000;fill-opacity:1;stroke:none"
         transform="translate(10.218432,50.781484)">
        <tspan
           style="text-anchor:middle"
           id="tspan1798">2</tspan>
      </text>
    </g>
    <text
       id="text1806"
       style="font-style:normal;font-size:4.5px;text-anchor:middle;fill:#000000;fill-opacity:1;stroke:none"
       transform="rotate(154.76075,3.8647329,68.89674)">
      <tspan
         style="text-anchor:middle"
         id="tspan1804">YAB:4</tspan>
    </text>
  </g>
</svg>
