<?xml version="1.0" encoding="UTF-8" standalone="no"?>
<svg
   xmlns:dc="http://purl.org/dc/elements/1.1/"
   xmlns:cc="http://creativecommons.org/ns#"
   xmlns:rdf="http://www.w3.org/1999/02/22-rdf-syntax-ns#"
   xmlns:svg="http://www.w3.org/2000/svg"
   xmlns="http://www.w3.org/2000/svg"
   xmlns:sodipodi="http://sodipodi.sourceforge.net/DTD/sodipodi-0.dtd"
   xmlns:inkscape="http://www.inkscape.org/namespaces/inkscape"
   version="1.1"
   width="210.00mm"
   height="297.00mm"
   viewBox="0 0 210.00 297.00"
   id="svg966"
   sodipodi:docname="toucan_head_and_neck_think_beak.blend_page3.svg"
   inkscape:version="0.92.5 (2060ec1f9f, 2020-04-08)">
  <metadata
     id="metadata972">
    <rdf:RDF>
      <cc:Work
         rdf:about="">
        <dc:format>image/svg+xml</dc:format>
        <dc:type
           rdf:resource="http://purl.org/dc/dcmitype/StillImage" />
      </cc:Work>
    </rdf:RDF>
  </metadata>
  <defs
     id="defs970" />
  <sodipodi:namedview
     pagecolor="#ffffff"
     bordercolor="#666666"
     borderopacity="1"
     objecttolerance="10"
     gridtolerance="10"
     guidetolerance="10"
     inkscape:pageopacity="0"
     inkscape:pageshadow="2"
     inkscape:window-width="1279"
     inkscape:window-height="1395"
     id="namedview968"
     showgrid="false"
     inkscape:zoom="0.84096521"
     inkscape:cx="670.5193"
     inkscape:cy="504.28346"
     inkscape:window-x="1280"
     inkscape:window-y="0"
     inkscape:window-maximized="0"
     inkscape:current-layer="svg966" />
  <style
     type="text/css"
     id="style638">
    path {
        fill: none;
        stroke-linecap: butt;
        stroke-linejoin: bevel;
        stroke-dasharray: none;
    }
    path.outer {
        stroke: #000000;
        stroke-dasharray: none;
        stroke-dashoffset: 0;
        stroke-width: 0.3;
        stroke-opacity: 1.0;
    }
    path.convex {
        stroke: #000000;
        stroke-dasharray: 0.50,1.00;
        stroke-dashoffset:0;
        stroke-width:0.2;
        stroke-opacity: 1.0
    }
    path.concave {
        stroke: #000000;
        stroke-dasharray: 1.00,0.50,0.20,0.50;
        stroke-dashoffset: 0;
        stroke-width: 0.2;
        stroke-opacity: 1.0
    }
    path.freestyle {
        stroke: #000000;
        stroke-dasharray: none;
        stroke-dashoffset: 0;
        stroke-width: 0.2;
        stroke-opacity: 1.0
    }
    path.outer_background {
        stroke: #ffffff;
        stroke-opacity: 1.0;
        stroke-width: 0.5
    }
    path.inner_background {
        stroke: #ffffff;
        stroke-opacity: 1.0;
        stroke-width: 0.2
    }
    path.sticker {
        fill: #e5e5e5;
        stroke: none;
        fill-opacity: 1.0;
    }
    path.arrow {
        fill: #000000;
    }
    text {
        font-style: normal;
        fill: #000000;
        fill-opacity: 1.0;
        stroke: none;
    }
    text, tspan {
        text-anchor:middle;
    }
    </style>
  <text
     style="font-style:normal;font-size:5px;text-anchor:middle;fill:#000000;fill-opacity:1;stroke:none"
     id="text558"
     x="164.42351"
     y="94.766388">
    <tspan
       id="tspan556"
       style="text-anchor:middle">[WR] White Right</tspan>
  </text>
  <path
     class="sticker"
     d="m 199.64864,135.25351 0.56708,5.74559 -5.77507,4.14017 -5.25938,-2.38168 z"
     id="path560"
     inkscape:connector-curvature="0"
     style="fill:#e5e5e5;fill-opacity:1;stroke:none;stroke-linecap:butt;stroke-linejoin:bevel;stroke-dasharray:none" />
  <path
     class="convex"
     d="m 196.73141,108.57474 -20.74349,23.69485 m 20.74349,-23.69485 -37.9707,9.91788 M 137.69749,97.3004 157.00138,32.14502"
     id="path562"
     inkscape:connector-curvature="0"
     style="fill:none;stroke:#000000;stroke-width:0.2;stroke-linecap:butt;stroke-linejoin:bevel;stroke-dasharray:0.5, 1;stroke-dashoffset:0;stroke-opacity:1" />
  <path
     class="concave"
     d="m 158.76071,118.49262 -1.75933,-86.3476"
     id="path564"
     inkscape:connector-curvature="0"
     style="fill:none;stroke:#000000;stroke-width:0.2;stroke-linecap:butt;stroke-linejoin:bevel;stroke-dasharray:1, 0.5, 0.2, 0.5;stroke-dashoffset:0;stroke-opacity:1" />
  <path
     class="outer"
     d="m 200.21572,140.9991 -5.77507,4.14017 -5.25938,-2.38168 -13.19335,-10.488 -17.22721,-13.77697 -21.06322,-21.19222 -13.54842,-77.17108 32.85231,12.0157 39.73003,76.42972 2.91723,26.67877 z"
     id="path566"
     inkscape:connector-curvature="0"
     style="fill:none;stroke:#000000;stroke-width:0.30000001;stroke-linecap:butt;stroke-linejoin:bevel;stroke-dasharray:none;stroke-dashoffset:0;stroke-opacity:1" />
  <g
     id="g574"
     transform="translate(5.6240354,-140.86072)">
    <path
       transform="matrix(-0.543493,-4.970374,4.970374,-0.543493,192.56598,262.77485)"
       class="arrow"
       d="M 0,0 1,1 0,0.25 -1,1 Z"
       id="path568"
       inkscape:connector-curvature="0"
       style="fill:#000000;stroke-linecap:butt;stroke-linejoin:bevel;stroke-dasharray:none" />
    <text
       transform="translate(197.03931,264.28571)"
       style="font-style:normal;font-size:5px;text-anchor:middle;fill:#000000;fill-opacity:1;stroke:none"
       id="text572">
      <tspan
         id="tspan570"
         style="text-anchor:middle">1</tspan>
    </text>
  </g>
  <text
     transform="rotate(144.36313)"
     style="font-style:normal;font-size:4.5px;text-anchor:middle;fill:#000000;fill-opacity:1;stroke:none"
     id="text578"
     x="-77.015053"
     y="-227.14854">
    <tspan
       id="tspan576"
       style="text-anchor:middle">1AJ:2</tspan>
  </text>
  <g
     id="g586"
     transform="translate(5.6240354,-140.86072)">
    <path
       transform="matrix(0.864594,4.92468,-4.92468,0.864594,125.29923,199.57558)"
       class="arrow"
       d="M 0,0 1,1 0,0.25 -1,1 Z"
       id="path580"
       inkscape:connector-curvature="0"
       style="fill:#000000;stroke-linecap:butt;stroke-linejoin:bevel;stroke-dasharray:none" />
    <text
       transform="translate(120.86703,202.35371)"
       style="font-style:normal;font-size:5px;text-anchor:middle;fill:#000000;fill-opacity:1;stroke:none"
       id="text584">
      <tspan
         id="tspan582"
         style="text-anchor:middle">2</tspan>
    </text>
  </g>
  <g
     id="g594"
     transform="translate(5.6240354,-140.86072)">
    <path
       transform="matrix(-4.695773,-1.717475,1.717475,-4.695773,134.95118,166.99789)"
       class="arrow"
       d="M 0,0 1,1 0,0.25 -1,1 Z"
       id="path588"
       inkscape:connector-curvature="0"
       style="fill:#000000;stroke-linecap:butt;stroke-linejoin:bevel;stroke-dasharray:none" />
    <text
       transform="translate(136.49691,164.7717)"
       style="font-style:normal;font-size:5px;text-anchor:middle;fill:#000000;fill-opacity:1;stroke:none"
       id="text592">
      <tspan
         id="tspan590"
         style="text-anchor:middle">3</tspan>
    </text>
  </g>
  <g
     id="g602"
     transform="translate(5.6240354,-140.86072)">
    <path
       transform="matrix(-2.30615,-4.436403,4.436403,-2.30615,171.24235,211.2206)"
       class="arrow"
       d="M 0,0 1,1 0,0.25 -1,1 Z"
       id="path596"
       inkscape:connector-curvature="0"
       style="fill:#000000;stroke-linecap:butt;stroke-linejoin:bevel;stroke-dasharray:none" />
    <text
       transform="translate(175.23511,211.14506)"
       style="font-style:normal;font-size:5px;text-anchor:middle;fill:#000000;fill-opacity:1;stroke:none"
       id="text600">
      <tspan
         id="tspan598"
         style="text-anchor:middle">4</tspan>
    </text>
  </g>
  <text
     style="font-style:normal;font-size:5px;text-anchor:middle;fill:#000000;fill-opacity:1;stroke:none"
     id="text978"
     x="92.118248"
     y="160.29849">
    <tspan
       id="tspan976"
       style="text-anchor:middle">[WRB] White Right</tspan>
  </text>
  <path
     class="sticker"
     d="m 71.965351,183.68072 -5.5577,-1.56378 -4.57804,-17.98003 4.13311,-4.03123 z m -6.00263,-23.57504 -5,-2.88674 V 136.4784 l 5,-2.88674 z m 18.56501,49.62185 -5.75761,-0.42809 -10.05429,-20.84653 3.24952,-4.77219 z"
     id="path980"
     inkscape:connector-curvature="0"
     style="fill:#e5e5e5;fill-opacity:1;stroke:none;stroke-linecap:butt;stroke-linejoin:bevel;stroke-dasharray:none" />
  <path
     class="convex"
     d="m 65.962721,133.59166 v 26.51402 m 0,0 50.896119,5.20944 m 0,0 -18.033729,-37.44259 m -32.86239,32.23315 6.00263,23.57504 m 0,0 44.893489,-18.36559 m -44.893489,18.36559 12.56238,26.04681"
     id="path982"
     inkscape:connector-curvature="0"
     style="fill:none;stroke:#000000;stroke-width:0.2;stroke-linecap:butt;stroke-linejoin:bevel;stroke-dasharray:0.5, 1;stroke-dashoffset:0;stroke-opacity:1" />
  <path
     class="outer"
     d="m 98.825111,127.87253 24.803389,0.63923 -6.76966,36.80336 -32.331109,44.41241 -5.75761,-0.42809 -10.05429,-20.84653 3.24952,-4.77219 -5.5577,-1.56378 -4.57804,-17.98004 4.13311,-4.03122 -5,-2.88674 V 136.4784 l 5,-2.88674 z"
     id="path984"
     inkscape:connector-curvature="0"
     style="fill:none;stroke:#000000;stroke-width:0.30000001;stroke-linecap:butt;stroke-linejoin:bevel;stroke-dasharray:none;stroke-dashoffset:0;stroke-opacity:1" />
  <g
     id="g992"
     transform="translate(-52.400979,86.423614)">
    <path
       transform="matrix(-4.99834,-0.12882,0.12882,-4.99834,163.62778,41.768546)"
       class="arrow"
       d="M 0,0 1,1 0,0.25 -1,1 Z"
       id="path986"
       inkscape:connector-curvature="0"
       style="fill:#000000;stroke-linecap:butt;stroke-linejoin:bevel;stroke-dasharray:none" />
    <text
       transform="translate(163.74372,39.270039)"
       style="font-style:normal;font-size:5px;text-anchor:middle;fill:#000000;fill-opacity:1;stroke:none"
       id="text990">
      <tspan
         id="tspan988"
         style="text-anchor:middle">1</tspan>
    </text>
  </g>
  <text
     transform="rotate(-104.28499)"
     style="font-style:normal;font-size:4.5px;text-anchor:middle;fill:#000000;fill-opacity:1;stroke:none"
     id="text996"
     x="-183.59491"
     y="23.517893">
    <tspan
       id="tspan994"
       style="text-anchor:middle">WRC:1</tspan>
  </text>
  <text
     transform="rotate(-90)"
     style="font-style:normal;font-size:4.5px;text-anchor:middle;fill:#000000;fill-opacity:1;stroke:none"
     id="text1000"
     x="-146.84866"
     y="65.062714">
    <tspan
       id="tspan998"
       style="text-anchor:middle">W:1</tspan>
  </text>
  <text
     transform="rotate(-115.74802)"
     style="font-style:normal;font-size:4.5px;text-anchor:middle;fill:#000000;fill-opacity:1;stroke:none"
     id="text1004"
     x="-211.16544"
     y="-15.873364">
    <tspan
       id="tspan1002"
       style="text-anchor:middle">WRC:2</tspan>
  </text>
  <g
     id="g1012"
     transform="translate(-52.400979,86.423614)">
    <path
       transform="matrix(-4.925959,0.857278,-0.857278,-4.925959,134.7949,44.308479)"
       class="arrow"
       d="M 0,0 1,1 0,0.25 -1,1 Z"
       id="path1006"
       inkscape:connector-curvature="0"
       style="fill:#000000;stroke-linecap:butt;stroke-linejoin:bevel;stroke-dasharray:none" />
    <text
       transform="translate(134.02334,41.875119)"
       style="font-style:normal;font-size:5px;text-anchor:middle;fill:#000000;fill-opacity:1;stroke:none"
       id="text1010">
      <tspan
         id="tspan1008"
         style="text-anchor:middle">2</tspan>
    </text>
  </g>
  <g
     id="g1020"
     transform="translate(-52.400979,86.423614)">
    <path
       transform="matrix(0.904532,-4.917501,4.917501,0.904532,172.64465,60.489829)"
       class="arrow"
       d="M 0,0 1,1 0,0.25 -1,1 Z"
       id="path1014"
       inkscape:connector-curvature="0"
       style="fill:#000000;stroke-linecap:butt;stroke-linejoin:bevel;stroke-dasharray:none" />
    <text
       transform="translate(177.07041,63.303913)"
       style="font-style:normal;font-size:5px;text-anchor:middle;fill:#000000;fill-opacity:1;stroke:none"
       id="text1018">
      <tspan
         id="tspan1016"
         style="text-anchor:middle">3</tspan>
    </text>
  </g>
  <g
     id="g1028"
     transform="translate(-52.400979,86.423614)">
    <path
       transform="matrix(2.942714,-4.04233,4.04233,2.942714,153.09427,101.09771)"
       class="arrow"
       d="M 0,0 1,1 0,0.25 -1,1 Z"
       id="path1022"
       inkscape:connector-curvature="0"
       style="fill:#000000;stroke-linecap:butt;stroke-linejoin:bevel;stroke-dasharray:none" />
    <text
       transform="translate(156.73237,105.74616)"
       style="font-style:normal;font-size:5px;text-anchor:middle;fill:#000000;fill-opacity:1;stroke:none"
       id="text1026">
      <tspan
         id="tspan1024"
         style="text-anchor:middle">4</tspan>
    </text>
  </g>
  <text
     style="font-style:normal;font-size:5px;text-anchor:middle;fill:#000000;fill-opacity:1;stroke:none"
     id="text1150"
     x="50.867283"
     y="241.70067">
    <tspan
       id="tspan1148"
       style="text-anchor:middle">[WRA] White Right</tspan>
  </text>
  <path
     class="sticker"
     d="m 81.097181,250.85399 -0.175923,5.77082 -16.769897,9.01224 -4.909717,-3.03777 z m -21.855537,11.74529 -0.826098,5.71409 -25.614967,10.23159 -4.535502,-3.57248 z m -30.976567,12.3732 -5.453091,-1.89661 -2.459425,-12.86582 4.36906,-3.77421 z m -3.543456,-18.53664 -5,-2.88675 -2e-6,-35.446 4.999999,-2.88676 z m -3e-6,-41.21951 -3.128668,-4.85228 11.364525,-22.12551 5.766544,-0.28336 z"
     id="path1152"
     inkscape:connector-curvature="0"
     style="fill:#e5e5e5;fill-opacity:1;stroke:none;stroke-linecap:butt;stroke-linejoin:bevel;stroke-dasharray:none" />
  <path
     class="convex"
     d="m 38.724019,187.95518 -14.002401,27.26115 m 0,0 49.29867,4.99194 m -49.29867,-4.99194 3e-6,41.21951 m 0,0 49.298667,-36.22757 m -49.298667,36.22757 34.520023,6.16344 m 0,0 14.778644,-42.39101 m -45.755211,54.76421 30.976567,-12.3732 m -34.520023,-6.16344 3.543456,18.53664 m 30.976567,-12.3732 21.855537,-11.74529"
     id="path1154"
     inkscape:connector-curvature="0"
     style="fill:none;stroke:#000000;stroke-width:0.2;stroke-linecap:butt;stroke-linejoin:bevel;stroke-dasharray:0.5, 1;stroke-dashoffset:0;stroke-opacity:1" />
  <path
     class="outer"
     d="m 22.811986,273.07587 -2.459425,-12.86582 4.36906,-3.77421 -5,-2.88675 -2e-6,-35.446 4.999999,-2.88676 -3.128668,-4.85228 11.364525,-22.12551 5.766544,-0.28336 35.296269,32.25309 7.076893,30.64572 -0.175923,5.77082 -16.769897,9.01224 -4.909717,-3.03777 -0.826098,5.71409 -25.614967,10.23159 -4.535502,-3.57248 z"
     id="path1156"
     inkscape:connector-curvature="0"
     style="fill:none;stroke:#000000;stroke-width:0.30000001;stroke-linecap:butt;stroke-linejoin:bevel;stroke-dasharray:none;stroke-dashoffset:0;stroke-opacity:1" />
  <g
     id="g1164"
     transform="translate(14.721619,150.79595)">
    <path
       transform="matrix(-1.125023,-4.871789,4.871789,-1.125023,62.837117,84.73518)"
       class="arrow"
       d="M 0,0 1,1 0,0.25 -1,1 Z"
       id="path1158"
       inkscape:connector-curvature="0"
       style="fill:#000000;stroke-linecap:butt;stroke-linejoin:bevel;stroke-dasharray:none" />
    <text
       transform="translate(67.221728,85.722665)"
       style="font-style:normal;font-size:5px;text-anchor:middle;fill:#000000;fill-opacity:1;stroke:none"
       id="text1162">
      <tspan
         id="tspan1160"
         style="text-anchor:middle">1</tspan>
    </text>
  </g>
  <text
     transform="rotate(151.74614)"
     style="font-style:normal;font-size:4.5px;text-anchor:middle;fill:#000000;fill-opacity:1;stroke:none"
     id="text1168"
     x="59.719643"
     y="-260.25665">
    <tspan
       id="tspan1166"
       style="text-anchor:middle">WRB:1</tspan>
  </text>
  <text
     transform="rotate(158.2264)"
     style="font-style:normal;font-size:4.5px;text-anchor:middle;fill:#000000;fill-opacity:1;stroke:none"
     id="text1172"
     x="59.071575"
     y="-266.73972">
    <tspan
       id="tspan1170"
       style="text-anchor:middle">WRB:2</tspan>
  </text>
  <text
     transform="rotate(-100.82209)"
     style="font-style:normal;font-size:4.5px;text-anchor:middle;fill:#000000;fill-opacity:1;stroke:none"
     id="text1176"
     x="-265.95297"
     y="-24.766441">
    <tspan
       id="tspan1174"
       style="text-anchor:middle">WL:1</tspan>
  </text>
  <text
     transform="rotate(-62.813209)"
     style="font-style:normal;font-size:4.5px;text-anchor:middle;fill:#000000;fill-opacity:1;stroke:none"
     id="text1180"
     x="-164.82098"
     y="119.42124">
    <tspan
       id="tspan1178"
       style="text-anchor:middle">WL:2</tspan>
  </text>
  <g
     id="g1188"
     transform="translate(14.721619,150.79595)">
    <path
       transform="matrix(-3.69107,-3.372833,3.372833,-3.69107,41.650535,53.285773)"
       class="arrow"
       d="M 0,0 1,1 0,0.25 -1,1 Z"
       id="path1182"
       inkscape:connector-curvature="0"
       style="fill:#000000;stroke-linecap:butt;stroke-linejoin:bevel;stroke-dasharray:none" />
    <text
       transform="translate(44.686084,51.963816)"
       style="font-style:normal;font-size:5px;text-anchor:middle;fill:#000000;fill-opacity:1;stroke:none"
       id="text1186">
      <tspan
         id="tspan1184"
         style="text-anchor:middle">2</tspan>
    </text>
  </g>
  <text
     style="font-style:normal;font-size:5px;text-anchor:middle;fill:#000000;fill-opacity:1;stroke:none"
     id="text1662"
     x="147.20161"
     y="245.62154">
    <tspan
       id="tspan1660"
       style="text-anchor:middle">[WL] White Left</tspan>
  </text>
  <path
     class="sticker"
     d="m 143.82364,143.95778 4.19377,-3.96809 6.81022,2.02812 1.33958,5.61593 z m -38.93752,136.24297 -4.67094,-3.39347 7.30815,-69.54801 5.2743,-2.34841 z m 71.83532,-79.48666 5.72871,0.7178 15.8136,37.51248 -1.13084,10.1891 z"
     id="path1664"
     inkscape:connector-curvature="0"
     style="fill:#e5e5e5;fill-opacity:1;stroke:none;stroke-linecap:butt;stroke-linejoin:bevel;stroke-dasharray:none" />
  <path
     class="convex"
     d="m 164.54249,272.9803 -41.55176,-96.15634 m 41.55176,96.15634 12.17895,-72.26621 m 16.59354,82.81995 -16.59354,-82.81995 m -63.92381,4.19677 10.8186,72.97756 m -10.8186,-72.97756 -7.91151,75.28989 m 29.89067,-122.02269 27.34209,15.62521"
     id="path1666"
     inkscape:connector-curvature="0"
     style="fill:none;stroke:#000000;stroke-width:0.2;stroke-linecap:butt;stroke-linejoin:bevel;stroke-dasharray:0.5, 1;stroke-dashoffset:0;stroke-opacity:1" />
  <path
     class="concave"
     d="m 112.79763,204.91086 51.74486,68.06944 m -2.42361,-99.17703 -39.12815,3.02069 m 41.55176,96.15634 -2.42361,-99.17703"
     id="path1668"
     inkscape:connector-curvature="0"
     style="fill:none;stroke:#000000;stroke-width:0.2;stroke-linecap:butt;stroke-linejoin:bevel;stroke-dasharray:1, 0.5, 0.2, 0.5;stroke-dashoffset:0;stroke-opacity:1" />
  <path
     class="outer"
     d="m 182.45015,201.43189 15.8136,37.51248 -1.13084,10.1891 -3.81793,34.40057 -28.77249,-10.55374 -40.92626,4.90812 -18.73011,2.31233 -4.67094,-3.39347 7.30815,-69.54801 5.2743,-2.34841 10.1931,-28.0869 11.78606,-18.6459 9.04685,-14.22028 4.19377,-3.96809 6.81022,2.02812 1.33958,5.61593 5.95167,26.16953 14.60256,26.91082 z"
     id="path1670"
     inkscape:connector-curvature="0"
     style="fill:none;stroke:#000000;stroke-width:0.30000001;stroke-linecap:butt;stroke-linejoin:bevel;stroke-dasharray:none;stroke-dashoffset:0;stroke-opacity:1" />
  <g
     id="g1678"
     transform="translate(95.215184,-0.38797631)">
    <path
       transform="matrix(4.962327,-0.612627,0.612627,4.962327,19.035994,279.43257)"
       class="arrow"
       d="M 0,0 1,1 0,0.25 -1,1 Z"
       id="path1672"
       inkscape:connector-curvature="0"
       style="fill:#000000;stroke-linecap:butt;stroke-linejoin:bevel;stroke-dasharray:none" />
    <text
       transform="translate(19.587358,285.89866)"
       style="font-style:normal;font-size:5px;text-anchor:middle;fill:#000000;fill-opacity:1;stroke:none"
       id="text1676">
      <tspan
         id="tspan1674"
         style="text-anchor:middle">1</tspan>
    </text>
  </g>
  <g
     id="g1686"
     transform="translate(95.215184,-0.38797631)">
    <path
       transform="matrix(4.69418,1.721824,-1.721824,4.69418,83.713559,278.64515)"
       class="arrow"
       d="M 0,0 1,1 0,0.25 -1,1 Z"
       id="path1680"
       inkscape:connector-curvature="0"
       style="fill:#000000;stroke-linecap:butt;stroke-linejoin:bevel;stroke-dasharray:none" />
    <text
       transform="translate(82.16392,284.86991)"
       style="font-style:normal;font-size:5px;text-anchor:middle;fill:#000000;fill-opacity:1;stroke:none"
       id="text1684">
      <tspan
         id="tspan1682"
         style="text-anchor:middle">2</tspan>
    </text>
  </g>
  <g
     id="g1694"
     transform="translate(95.215184,-0.38797631)">
    <path
       transform="matrix(-1.108823,-4.875501,4.875501,-1.108823,63.927867,161.10649)"
       class="arrow"
       d="M 0,0 1,1 0,0.25 -1,1 Z"
       id="path1688"
       inkscape:connector-curvature="0"
       style="fill:#000000;stroke-linecap:butt;stroke-linejoin:bevel;stroke-dasharray:none" />
    <text
       transform="translate(68.315816,162.10855)"
       style="font-style:normal;font-size:5px;text-anchor:middle;fill:#000000;fill-opacity:1;stroke:none"
       id="text1692">
      <tspan
         id="tspan1690"
         style="text-anchor:middle">3</tspan>
    </text>
  </g>
  <text
     transform="rotate(16.583783)"
     style="font-style:normal;font-size:4.5px;text-anchor:middle;fill:#000000;fill-opacity:1;stroke:none"
     id="text1698"
     x="185.36893"
     y="96.019775">
    <tspan
       id="tspan1696"
       style="text-anchor:middle">1AJ:1</tspan>
  </text>
  <g
     id="g1706"
     transform="translate(95.215184,-0.38797631)">
    <path
       transform="matrix(-2.384681,-4.394691,4.394691,-2.384681,74.204979,187.64667)"
       class="arrow"
       d="M 0,0 1,1 0,0.25 -1,1 Z"
       id="path1700"
       inkscape:connector-curvature="0"
       style="fill:#000000;stroke-linecap:butt;stroke-linejoin:bevel;stroke-dasharray:none" />
    <text
       transform="translate(78.160201,187.50045)"
       style="font-style:normal;font-size:5px;text-anchor:middle;fill:#000000;fill-opacity:1;stroke:none"
       id="text1704">
      <tspan
         id="tspan1702"
         style="text-anchor:middle">4</tspan>
    </text>
  </g>
  <text
     transform="rotate(-84.00135)"
     style="font-style:normal;font-size:4.5px;text-anchor:middle;fill:#000000;fill-opacity:1;stroke:none"
     id="text1710"
     x="-229.85318"
     y="132.69415">
    <tspan
       id="tspan1708"
       style="text-anchor:middle">W:3</tspan>
  </text>
  <g
     id="g1718"
     transform="translate(95.215184,-0.38797631)">
    <path
       transform="matrix(0.551537,-4.969488,4.969488,0.551537,100.00877,266.72174)"
       class="arrow"
       d="M 0,0 1,1 0,0.25 -1,1 Z"
       id="path1712"
       inkscape:connector-curvature="0"
       style="fill:#000000;stroke-linecap:butt;stroke-linejoin:bevel;stroke-dasharray:none" />
    <text
       transform="translate(104.48131,269.21812)"
       style="font-style:normal;font-size:5px;text-anchor:middle;fill:#000000;fill-opacity:1;stroke:none"
       id="text1716">
      <tspan
         id="tspan1714"
         style="text-anchor:middle">5</tspan>
    </text>
  </g>
  <text
     transform="rotate(67.141841)"
     style="font-style:normal;font-size:4.5px;text-anchor:middle;fill:#000000;fill-opacity:1;stroke:none"
     id="text1722"
     x="279.8725"
     y="-85.775818">
    <tspan
       id="tspan1720"
       style="text-anchor:middle">1AH:3</tspan>
  </text>
  <text
     style="font-style:normal;font-size:5px;text-anchor:middle;fill:#000000;fill-opacity:1;stroke:none"
     id="text1914"
     x="40.624702"
     y="49.903931">
    <tspan
       id="tspan1912"
       style="text-anchor:middle">[W] White</tspan>
  </text>
  <path
     class="convex"
     d="M 41.821654,85.569334 31.313844,18.520413 m 20.74412,-1.222759 -10.23631,68.27168"
     id="path1916"
     inkscape:connector-curvature="0"
     style="fill:none;stroke:#000000;stroke-width:0.2;stroke-linecap:butt;stroke-linejoin:bevel;stroke-dasharray:0.5, 1;stroke-dashoffset:0;stroke-opacity:1" />
  <path
     class="outer"
     d="m 17.271114,75.556114 14.04273,-57.035701 20.74412,-1.222759 21.3589,-0.524432 -31.59521,68.796112 z"
     id="path1918"
     inkscape:connector-curvature="0"
     style="fill:none;stroke:#000000;stroke-width:0.30000001;stroke-linecap:butt;stroke-linejoin:bevel;stroke-dasharray:none;stroke-dashoffset:0;stroke-opacity:1" />
  <g
     id="g1926"
     transform="translate(-84.762866,-44.303876)">
    <path
       transform="matrix(4.629727,1.888286,-1.888286,4.629727,114.30925,124.8666)"
       class="arrow"
       d="M 0,0 1,1 0,0.25 -1,1 Z"
       id="path1920"
       inkscape:connector-curvature="0"
       style="fill:#000000;stroke-linecap:butt;stroke-linejoin:bevel;stroke-dasharray:none" />
    <text
       transform="translate(112.60979,131.03336)"
       style="font-style:normal;font-size:5px;text-anchor:middle;fill:#000000;fill-opacity:1;stroke:none"
       id="text1924">
      <tspan
         id="tspan1922"
         style="text-anchor:middle">1</tspan>
    </text>
  </g>
  <g
     id="g1934"
     transform="translate(-84.762866,-44.303876)">
    <path
       transform="matrix(-1.19535,4.855012,-4.855012,-1.19535,109.05535,91.342147)"
       class="arrow"
       d="M 0,0 1,1 0,0.25 -1,1 Z"
       id="path1928"
       inkscape:connector-curvature="0"
       style="fill:#000000;stroke-linecap:butt;stroke-linejoin:bevel;stroke-dasharray:none" />
    <text
       transform="translate(104.68583,92.266331)"
       style="font-style:normal;font-size:5px;text-anchor:middle;fill:#000000;fill-opacity:1;stroke:none"
       id="text1932">
      <tspan
         id="tspan1930"
         style="text-anchor:middle">2</tspan>
    </text>
  </g>
  <g
     id="g1942"
     transform="translate(-84.762866,-44.303876)">
    <path
       transform="matrix(2.086747,-4.54373,4.54373,2.086747,142.38212,95.475147)"
       class="arrow"
       d="M 0,0 1,1 0,0.25 -1,1 Z"
       id="path1936"
       inkscape:connector-curvature="0"
       style="fill:#000000;stroke-linecap:butt;stroke-linejoin:bevel;stroke-dasharray:none" />
    <text
       transform="translate(146.47147,99.353219)"
       style="font-style:normal;font-size:5px;text-anchor:middle;fill:#000000;fill-opacity:1;stroke:none"
       id="text1940">
      <tspan
         id="tspan1938"
         style="text-anchor:middle">3</tspan>
    </text>
  </g>
  <text
     style="font-style:normal;font-size:5px;text-anchor:middle;fill:#000000;fill-opacity:1;stroke:none"
     id="text1994"
     x="96.796425"
     y="80.416145">
    <tspan
       id="tspan1992"
       style="text-anchor:middle">[WRC] White RIght</tspan>
  </text>
  <path
     class="sticker"
     d="m 73.382965,111.11496 -5,-2.88676 10e-7,-72.577859 5,-2.886742 z m 41.587845,-71.941567 5.40283,2.035379 8.61167,52.26073 -4.46411,3.66129 z"
     id="path1996"
     inkscape:connector-curvature="0"
     style="fill:#e5e5e5;fill-opacity:1;stroke:none;stroke-linecap:butt;stroke-linejoin:bevel;stroke-dasharray:none" />
  <path
     class="convex"
     d="M 100.52708,101.14267 73.382966,32.763599 m 0,0 -10e-7,78.351361 M 124.5212,97.130792 94.64691,34.842862 m 20.3239,4.330531 9.55039,57.957399"
     id="path1998"
     inkscape:connector-curvature="0"
     style="fill:none;stroke:#000000;stroke-width:0.2;stroke-linecap:butt;stroke-linejoin:bevel;stroke-dasharray:0.5, 1;stroke-dashoffset:0;stroke-opacity:1" />
  <path
     class="concave"
     d="M 124.5212,97.130792 73.382966,32.763599"
     id="path2000"
     inkscape:connector-curvature="0"
     style="fill:none;stroke:#000000;stroke-width:0.2;stroke-linecap:butt;stroke-linejoin:bevel;stroke-dasharray:1, 0.5, 0.2, 0.5;stroke-dashoffset:0;stroke-opacity:1" />
  <path
     class="outer"
     d="m 94.64691,34.842862 20.3239,4.330531 5.40283,2.035379 8.61167,52.26073 -4.46411,3.66129 -23.99412,4.011878 -27.144115,9.97229 -5,-2.88676 10e-7,-72.577859 5,-2.886742 z"
     id="path2002"
     inkscape:connector-curvature="0"
     style="fill:none;stroke:#000000;stroke-width:0.30000001;stroke-linecap:butt;stroke-linejoin:bevel;stroke-dasharray:none;stroke-dashoffset:0;stroke-opacity:1" />
  <g
     id="g2010"
     transform="translate(63.382965,-18.825558)">
    <path
       transform="matrix(4.931541,-0.824566,0.824566,4.931541,49.141173,117.9623)"
       class="arrow"
       d="M 0,0 1,1 0,0.25 -1,1 Z"
       id="path2004"
       inkscape:connector-curvature="0"
       style="fill:#000000;stroke-linecap:butt;stroke-linejoin:bevel;stroke-dasharray:none" />
    <text
       transform="translate(49.883281,124.40067)"
       style="font-style:normal;font-size:5px;text-anchor:middle;fill:#000000;fill-opacity:1;stroke:none"
       id="text2008">
      <tspan
         id="tspan2006"
         style="text-anchor:middle">1</tspan>
    </text>
  </g>
  <g
     id="g2018"
     transform="translate(63.382965,-18.825558)">
    <path
       transform="matrix(4.693293,-1.724237,1.724237,4.693293,23.572058,124.95437)"
       class="arrow"
       d="M 0,0 1,1 0,0.25 -1,1 Z"
       id="path2012"
       inkscape:connector-curvature="0"
       style="fill:#000000;stroke-linecap:butt;stroke-linejoin:bevel;stroke-dasharray:none" />
    <text
       transform="translate(25.123871,131.17834)"
       style="font-style:normal;font-size:5px;text-anchor:middle;fill:#000000;fill-opacity:1;stroke:none"
       id="text2016">
      <tspan
         id="tspan2014"
         style="text-anchor:middle">2</tspan>
    </text>
  </g>
  <text
     transform="rotate(-90)"
     style="font-style:normal;font-size:4.5px;text-anchor:middle;fill:#000000;fill-opacity:1;stroke:none"
     id="text2022"
     x="-71.939285"
     y="72.482964">
    <tspan
       id="tspan2020"
       style="text-anchor:middle">WR:2</tspan>
  </text>
  <text
     transform="rotate(80.642741)"
     style="font-style:normal;font-size:4.5px;text-anchor:middle;fill:#000000;fill-opacity:1;stroke:none"
     id="text2026"
     x="86.714745"
     y="-107.97176">
    <tspan
       id="tspan2024"
       style="text-anchor:middle">W:2</tspan>
  </text>
</svg>
