<?xml version="1.0" encoding="UTF-8" standalone="no"?>
<svg
   xmlns:dc="http://purl.org/dc/elements/1.1/"
   xmlns:cc="http://creativecommons.org/ns#"
   xmlns:rdf="http://www.w3.org/1999/02/22-rdf-syntax-ns#"
   xmlns:svg="http://www.w3.org/2000/svg"
   xmlns="http://www.w3.org/2000/svg"
   xmlns:sodipodi="http://sodipodi.sourceforge.net/DTD/sodipodi-0.dtd"
   xmlns:inkscape="http://www.inkscape.org/namespaces/inkscape"
   version="1.1"
   width="210.00mm"
   height="297.00mm"
   viewBox="0 0 210.00 297.00"
   id="svg1554"
   sodipodi:docname="toucan_head_and_neck_think_beak.blend_page5.svg"
   inkscape:version="0.92.5 (2060ec1f9f, 2020-04-08)">
  <metadata
     id="metadata1560">
    <rdf:RDF>
      <cc:Work
         rdf:about="">
        <dc:format>image/svg+xml</dc:format>
        <dc:type
           rdf:resource="http://purl.org/dc/dcmitype/StillImage" />
      </cc:Work>
    </rdf:RDF>
  </metadata>
  <defs
     id="defs1558" />
  <sodipodi:namedview
     pagecolor="#ffffff"
     bordercolor="#666666"
     borderopacity="1"
     objecttolerance="10"
     gridtolerance="10"
     guidetolerance="10"
     inkscape:pageopacity="0"
     inkscape:pageshadow="2"
     inkscape:window-width="1279"
     inkscape:window-height="1395"
     id="namedview1556"
     showgrid="false"
     inkscape:zoom="0.84096521"
     inkscape:cx="405.57585"
     inkscape:cy="893.48443"
     inkscape:window-x="1280"
     inkscape:window-y="0"
     inkscape:window-maximized="0"
     inkscape:current-layer="svg1554" />
  <style
     type="text/css"
     id="style1302">
    path {
        fill: none;
        stroke-linecap: butt;
        stroke-linejoin: bevel;
        stroke-dasharray: none;
    }
    path.outer {
        stroke: #000000;
        stroke-dasharray: none;
        stroke-dashoffset: 0;
        stroke-width: 0.3;
        stroke-opacity: 1.0;
    }
    path.convex {
        stroke: #000000;
        stroke-dasharray: 0.50,1.00;
        stroke-dashoffset:0;
        stroke-width:0.2;
        stroke-opacity: 1.0
    }
    path.concave {
        stroke: #000000;
        stroke-dasharray: 1.00,0.50,0.20,0.50;
        stroke-dashoffset: 0;
        stroke-width: 0.2;
        stroke-opacity: 1.0
    }
    path.freestyle {
        stroke: #000000;
        stroke-dasharray: none;
        stroke-dashoffset: 0;
        stroke-width: 0.2;
        stroke-opacity: 1.0
    }
    path.outer_background {
        stroke: #ffffff;
        stroke-opacity: 1.0;
        stroke-width: 0.5
    }
    path.inner_background {
        stroke: #ffffff;
        stroke-opacity: 1.0;
        stroke-width: 0.2
    }
    path.sticker {
        fill: #e5e5e5;
        stroke: none;
        fill-opacity: 1.0;
    }
    path.arrow {
        fill: #000000;
    }
    text {
        font-style: normal;
        fill: #000000;
        fill-opacity: 1.0;
        stroke: none;
    }
    text, tspan {
        text-anchor:middle;
    }
    </style>
  <text
     transform="rotate(-2.2634567)"
     style="font-style:normal;font-size:5px;text-anchor:middle;fill:#000000;fill-opacity:1;stroke:none"
     id="text2216"
     x="98.632126"
     y="37.956017">
    <tspan
       id="tspan2214"
       style="text-anchor:middle">[R] Red</tspan>
  </text>
  <path
     class="sticker"
     d="m 98.924054,35.858051 -2.791694,5.053692 -25.674129,0.485526 -2.980776,-4.944524 z m 37.236526,-3.719504 -2.37549,5.262164 -31.49161,3.145659 -3.369426,-4.688319 z m 53.69741,11.588073 -3.87652,4.278534 -48.05383,-10.370167 -1.76706,-5.49644 z M 67.477455,36.452745 66.730817,42.177762 27.910848,58.312766 23.326168,54.803639 Z m 74.836585,-9.683925 4.39871,-3.739612 42.106,15.018214 1.03924,5.679198 z m -44.063905,2.086985 2.501045,-5.203661 31.33929,-2.37265 3.25598,4.767802 z m 37.096315,-2.808509 2.37212,-3.275504 2.94486,0.30495 1.65061,3.692078 z M 23.326168,54.803639 23.18329,48.919457 52.248,29.87444 l 5.154955,2.599956 z m 41.820433,-24.593148 2.679889,-5.113861 27.334868,-1.118616 3.08876,4.877802 z m -7.743646,2.263905 1.103441,-4.525356 3.272844,-0.956845 3.367361,3.218296 z"
     id="path2218"
     inkscape:connector-curvature="0"
     style="fill:#e5e5e5;fill-opacity:1;stroke:none;stroke-linecap:butt;stroke-linejoin:bevel;stroke-dasharray:none" />
  <path
     class="convex"
     d="m 98.250135,28.855805 -33.103534,1.354686 m 0,0 2.330854,6.242254 m 0,0 30.77268,-7.59694 m 0.673919,7.002246 -0.673919,-7.002246 m 37.910445,3.282742 -0.81413,-6.091251 m 0,0 -37.096315,2.808509 m 44.063905,-2.086985 -6.96759,-0.721524 m 0.81413,6.091251 6.15346,-5.369727 m -77.167439,3.441671 -7.743646,2.263905 m 0,0 10.0745,3.978349 m -10.0745,-3.978349 -34.076787,22.329243"
     id="path2220"
     inkscape:connector-curvature="0"
     style="fill:none;stroke:#000000;stroke-width:0.2;stroke-linecap:butt;stroke-linejoin:bevel;stroke-dasharray:0.5, 1;stroke-dashoffset:0;stroke-opacity:1" />
  <path
     class="concave"
     d="m 67.477455,36.452745 31.446599,-0.594694 m 0,0 37.236526,-3.719504 m 53.69741,11.588073 -47.54395,-16.9578 m -6.15346,5.369727 53.69741,11.588073 M 23.326168,54.803639 67.477455,36.452745"
     id="path2222"
     inkscape:connector-curvature="0"
     style="fill:none;stroke:#000000;stroke-width:0.2;stroke-linecap:butt;stroke-linejoin:bevel;stroke-dasharray:1, 0.5, 0.2, 0.5;stroke-dashoffset:0;stroke-opacity:1" />
  <path
     class="outer"
     d="m 100.75118,23.652144 31.33929,-2.37265 3.25598,4.767802 2.37212,-3.275504 2.94486,0.30495 1.65061,3.692078 4.39871,-3.739612 42.106,15.018214 1.03924,5.679198 -3.87652,4.278534 -48.05383,-10.370167 -1.76706,-5.49644 -2.37549,5.262164 -31.49161,3.145659 -3.369426,-4.688319 -2.791694,5.053692 -25.674129,0.485526 -2.980776,-4.944524 -0.746638,5.725017 L 27.910848,58.312766 23.326168,54.803639 23.18329,48.919457 52.248,29.87444 l 5.154955,2.599956 1.103441,-4.525356 3.272844,-0.956845 3.367361,3.218296 2.679889,-5.113861 27.334868,-1.118616 3.08876,4.877802 z"
     id="path2224"
     inkscape:connector-curvature="0"
     style="fill:none;stroke:#000000;stroke-width:0.30000001;stroke-linecap:butt;stroke-linejoin:bevel;stroke-dasharray:none;stroke-dashoffset:0;stroke-opacity:1" />
  <text
     transform="rotate(178.91659)"
     style="font-style:normal;font-size:4.5px;text-anchor:middle;fill:#000000;fill-opacity:1;stroke:none"
     id="text2228"
     x="-82.502251"
     y="-38.622105">
    <tspan
       id="tspan2226"
       style="text-anchor:middle">WRA:1</tspan>
  </text>
  <text
     transform="rotate(174.29573)"
     style="font-style:normal;font-size:4.5px;text-anchor:middle;fill:#000000;fill-opacity:1;stroke:none"
     id="text2232"
     x="-113.58104"
     y="-46.412952">
    <tspan
       id="tspan2230"
       style="text-anchor:middle">WRB:3</tspan>
  </text>
  <text
     transform="rotate(-167.82211)"
     style="font-style:normal;font-size:4.5px;text-anchor:middle;fill:#000000;fill-opacity:1;stroke:none"
     id="text2236"
     x="-167.34293"
     y="-3.5925782">
    <tspan
       id="tspan2234"
       style="text-anchor:middle">WRB:4</tspan>
  </text>
  <text
     transform="rotate(157.4304)"
     style="font-style:normal;font-size:4.5px;text-anchor:middle;fill:#000000;fill-opacity:1;stroke:none"
     id="text2240"
     x="-24.412359"
     y="-60.459129">
    <tspan
       id="tspan2238"
       style="text-anchor:middle">WRA:2</tspan>
  </text>
  <text
     transform="rotate(19.630116)"
     style="font-style:normal;font-size:4.5px;text-anchor:middle;fill:#000000;fill-opacity:1;stroke:none"
     id="text2244"
     x="168.27463"
     y="-23.496889">
    <tspan
       id="tspan2242"
       style="text-anchor:middle">1AC:4</tspan>
  </text>
  <text
     transform="rotate(-4.329536)"
     style="font-style:normal;font-size:4.5px;text-anchor:middle;fill:#000000;fill-opacity:1;stroke:none"
     id="text2248"
     x="114.39265"
     y="35.290665">
    <tspan
       id="tspan2246"
       style="text-anchor:middle">1:5</tspan>
  </text>
  <text
     transform="rotate(5.9121513)"
     style="font-style:normal;font-size:3.1500001px;text-anchor:middle;fill:#000000;fill-opacity:1;stroke:none"
     id="text2252"
     x="140.81192"
     y="11.337159">
    <tspan
       id="tspan2250"
       style="text-anchor:middle">1AC:5</tspan>
  </text>
  <text
     transform="rotate(-33.235325)"
     style="font-style:normal;font-size:4.5px;text-anchor:middle;fill:#000000;fill-opacity:1;stroke:none"
     id="text2256"
     x="9.8443508"
     y="57.723808">
    <tspan
       id="tspan2254"
       style="text-anchor:middle">1:6.</tspan>
  </text>
</svg>
