<?xml version="1.0" encoding="UTF-8" standalone="no"?>
<svg
   xmlns:dc="http://purl.org/dc/elements/1.1/"
   xmlns:cc="http://creativecommons.org/ns#"
   xmlns:rdf="http://www.w3.org/1999/02/22-rdf-syntax-ns#"
   xmlns:svg="http://www.w3.org/2000/svg"
   xmlns="http://www.w3.org/2000/svg"
   xmlns:sodipodi="http://sodipodi.sourceforge.net/DTD/sodipodi-0.dtd"
   xmlns:inkscape="http://www.inkscape.org/namespaces/inkscape"
   version="1.1"
   width="210.00mm"
   height="297.00mm"
   viewBox="0 0 210.00 297.00"
   id="svg1294"
   sodipodi:docname="toucan_head_and_neck_think_beak.blend_page4.svg"
   inkscape:version="0.92.5 (2060ec1f9f, 2020-04-08)">
  <metadata
     id="metadata1300">
    <rdf:RDF>
      <cc:Work
         rdf:about="">
        <dc:format>image/svg+xml</dc:format>
        <dc:type
           rdf:resource="http://purl.org/dc/dcmitype/StillImage" />
      </cc:Work>
    </rdf:RDF>
  </metadata>
  <defs
     id="defs1298" />
  <sodipodi:namedview
     pagecolor="#ffffff"
     bordercolor="#666666"
     borderopacity="1"
     objecttolerance="10"
     gridtolerance="10"
     guidetolerance="10"
     inkscape:pageopacity="0"
     inkscape:pageshadow="2"
     inkscape:window-width="1279"
     inkscape:window-height="1395"
     id="namedview1296"
     showgrid="false"
     inkscape:zoom="1.1893044"
     inkscape:cx="434.89619"
     inkscape:cy="916.09705"
     inkscape:window-x="1280"
     inkscape:window-y="0"
     inkscape:window-maximized="0"
     inkscape:current-layer="svg1294" />
  <style
     type="text/css"
     id="style974">
    path {
        fill: none;
        stroke-linecap: butt;
        stroke-linejoin: bevel;
        stroke-dasharray: none;
    }
    path.outer {
        stroke: #000000;
        stroke-dasharray: none;
        stroke-dashoffset: 0;
        stroke-width: 0.3;
        stroke-opacity: 1.0;
    }
    path.convex {
        stroke: #000000;
        stroke-dasharray: 0.50,1.00;
        stroke-dashoffset:0;
        stroke-width:0.2;
        stroke-opacity: 1.0
    }
    path.concave {
        stroke: #000000;
        stroke-dasharray: 1.00,0.50,0.20,0.50;
        stroke-dashoffset: 0;
        stroke-width: 0.2;
        stroke-opacity: 1.0
    }
    path.freestyle {
        stroke: #000000;
        stroke-dasharray: none;
        stroke-dashoffset: 0;
        stroke-width: 0.2;
        stroke-opacity: 1.0
    }
    path.outer_background {
        stroke: #ffffff;
        stroke-opacity: 1.0;
        stroke-width: 0.5
    }
    path.inner_background {
        stroke: #ffffff;
        stroke-opacity: 1.0;
        stroke-width: 0.2
    }
    path.sticker {
        fill: #e5e5e5;
        stroke: none;
        fill-opacity: 1.0;
    }
    path.arrow {
        fill: #000000;
    }
    text {
        font-style: normal;
        fill: #000000;
        fill-opacity: 1.0;
        stroke: none;
    }
    text, tspan {
        text-anchor:middle;
    }
    </style>
  <text
     style="font-style:normal;font-size:4.02390385px;text-anchor:middle;fill:#000000;fill-opacity:1;stroke:none;stroke-width:0.80478078"
     id="text6"
     x="-1.4851515"
     y="37.029636"
     transform="matrix(0.70589352,-0.7070495,0.66479241,0.75076318,0,0)"
     inkscape:transform-center-x="0.17360651"
     inkscape:transform-center-y="-0.36928274">
    <tspan
       id="tspan4"
       style="text-anchor:middle;stroke-width:0.80478078">[3A] 3</tspan>
  </text>
  <path
     class="sticker"
     d="m 19.62001,36.297144 -3.89868,3.066406 -3.37104,-1.349286 -0.70624,-4.90956 z m -7.87937,-19.911826 -0.0966,-5.77271 3.99953,-2.399206 5.04759,2.8027 z"
     id="path8"
     inkscape:connector-curvature="0"
     style="fill:#e5e5e5;fill-opacity:1;stroke:none;stroke-linecap:butt;stroke-linejoin:bevel;stroke-dasharray:none" />
  <path
     class="convex"
     d="m 19.55872,24.282129 1.13245,-13.266027 m 0,0 -3.30451,8.128941 m 2.17206,5.137086 13.21842,-1.50913 m -15.60335,6.973624 2.44622,6.550521 m -7.97596,-3.19244 7.97596,3.19244"
     id="path10"
     inkscape:connector-curvature="0"
     style="fill:none;stroke:#000000;stroke-width:0.2;stroke-linecap:butt;stroke-linejoin:bevel;stroke-dasharray:0.5, 1;stroke-dashoffset:0;stroke-opacity:1" />
  <path
     class="concave"
     d="m 20.69117,11.016102 -8.95053,5.369216"
     id="path12"
     inkscape:connector-curvature="0"
     style="fill:none;stroke:#000000;stroke-width:0.2;stroke-linecap:butt;stroke-linejoin:bevel;stroke-dasharray:1, 0.5, 0.2, 0.5;stroke-dashoffset:0;stroke-opacity:1" />
  <path
     class="outer"
     d="m 15.72133,39.36355 -3.37104,-1.349286 -0.70624,-4.90956 5.52974,-3.358081 2.38493,-5.464494 -2.17206,-5.137086 -5.64602,-2.759725 -0.0966,-5.77271 3.99953,-2.399206 5.04759,2.8027 L 32.77713,22.772999 19.62,36.297144 Z"
     id="path14"
     inkscape:connector-curvature="0"
     style="fill:none;stroke:#000000;stroke-width:0.30000001;stroke-linecap:butt;stroke-linejoin:bevel;stroke-dasharray:none;stroke-dashoffset:0;stroke-opacity:1" />
  <text
     transform="rotate(-158.18585)"
     style="font-style:normal;font-size:3.86999989px;text-anchor:middle;fill:#000000;fill-opacity:1;stroke:none"
     id="text18"
     x="-27.407471"
     y="-27.180527">
    <tspan
       id="tspan16"
       style="text-anchor:middle">3AB:1</tspan>
  </text>
  <text
     transform="rotate(-30.9585)"
     style="font-style:normal;font-size:4.5px;text-anchor:middle;fill:#000000;fill-opacity:1;stroke:none"
     id="text22"
     x="6.8578844"
     y="19.190697">
    <tspan
       id="tspan20"
       style="text-anchor:middle">3AB:3</tspan>
  </text>
  <text
     style="font-style:normal;font-size:4.15787935px;text-anchor:middle;fill:#000000;fill-opacity:1;stroke:none;stroke-width:0.83157581"
     id="text608"
     x="44.929562"
     y="-15.462628"
     transform="matrix(0.68855174,0.72393705,-0.74469085,0.66936248,0,0)">
    <tspan
       id="tspan606"
       style="text-anchor:middle;stroke-width:0.83157581">[3AD] 3</tspan>
  </text>
  <path
     class="sticker"
     d="m 39.911715,36.375917 -5.047597,2.802715 -3.999516,-2.399221 0.09658,-5.772695 z m -9.047113,-22.088587 0.70624,-4.909545 3.371038,-1.349301 3.89868,3.066391 z"
     id="path610"
     inkscape:connector-curvature="0"
     style="fill:#e5e5e5;fill-opacity:1;stroke:none;stroke-linecap:butt;stroke-linejoin:bevel;stroke-dasharray:none" />
  <path
     class="convex"
     d="m 51.997686,24.61902 -13.218414,-1.5091 m 0,0 1.132443,13.265997 m -3.304511,-8.128911 3.304511,8.128911 M 38.84056,11.094875 36.394341,17.645396 m 2.446219,-6.550521 -7.975958,3.192455"
     id="path612"
     inkscape:connector-curvature="0"
     style="fill:none;stroke:#000000;stroke-width:0.2;stroke-linecap:butt;stroke-linejoin:bevel;stroke-dasharray:0.5, 1;stroke-dashoffset:0;stroke-opacity:1" />
  <path
     class="concave"
     d="m 30.961184,31.006716 8.950531,5.369201"
     id="path614"
     inkscape:connector-curvature="0"
     style="fill:none;stroke:#000000;stroke-width:0.2;stroke-linecap:butt;stroke-linejoin:bevel;stroke-dasharray:1, 0.5, 0.2, 0.5;stroke-dashoffset:0;stroke-opacity:1" />
  <path
     class="outer"
     d="m 36.607204,28.247006 2.172068,-5.137086 -2.384931,-5.464524 -5.529739,-3.358066 0.70624,-4.909545 3.371038,-1.349301 3.89868,3.066391 13.157126,13.524145 -12.085971,11.756897 -5.047597,2.802715 -3.999516,-2.399221 0.09658,-5.772695 z"
     id="path616"
     inkscape:connector-curvature="0"
     style="fill:none;stroke:#000000;stroke-width:0.30000001;stroke-linecap:butt;stroke-linejoin:bevel;stroke-dasharray:none;stroke-dashoffset:0;stroke-opacity:1" />
  <text
     transform="rotate(-149.0415)"
     style="font-style:normal;font-size:4.5px;text-anchor:middle;fill:#000000;fill-opacity:1;stroke:none"
     id="text620"
     x="-47.719574"
     y="-11.562555">
    <tspan
       id="tspan618"
       style="text-anchor:middle">3:1</tspan>
  </text>
  <text
     transform="rotate(-21.814145)"
     style="font-style:normal;font-size:3.86999989px;text-anchor:middle;fill:#000000;fill-opacity:1;stroke:none"
     id="text624"
     x="27.640942"
     y="23.960287">
    <tspan
       id="tspan622"
       style="text-anchor:middle">3:2</tspan>
  </text>
  <text
     style="font-style:normal;font-size:5px;text-anchor:middle;fill:#000000;fill-opacity:1;stroke:none"
     id="text642"
     x="75.785591"
     y="55.950066">
    <tspan
       id="tspan640"
       style="text-anchor:middle">[3AA] 3</tspan>
  </text>
  <path
     class="sticker"
     d="m 60.387227,56.292999 -3.873087,-4.28165 4.56465,-14.159354 5.64456,-1.213357 z M 66.72335,36.638638 59.654061,25.405889 56.514133,7.694056 60.933467,3.978839 Z"
     id="path644"
     inkscape:connector-curvature="0"
     style="fill:#e5e5e5;fill-opacity:1;stroke:none;stroke-linecap:butt;stroke-linejoin:bevel;stroke-dasharray:none" />
  <path
     class="convex"
     d="m 66.72335,36.638638 18.057738,3.909037 M 74.766252,29.632932 66.72335,36.638638 M 60.387227,56.292999 84.781088,40.547675"
     id="path646"
     inkscape:connector-curvature="0"
     style="fill:none;stroke:#000000;stroke-width:0.2;stroke-linecap:butt;stroke-linejoin:bevel;stroke-dasharray:0.5, 1;stroke-dashoffset:0;stroke-opacity:1" />
  <path
     class="concave"
     d="m 66.72335,36.638638 -6.336123,19.654361 m 0.54624,-52.31416 5.789883,32.659799"
     id="path648"
     inkscape:connector-curvature="0"
     style="fill:none;stroke:#000000;stroke-width:0.2;stroke-linecap:butt;stroke-linejoin:bevel;stroke-dasharray:1, 0.5, 0.2, 0.5;stroke-dashoffset:0;stroke-opacity:1" />
  <path
     class="outer"
     d="M 74.766252,29.632932 84.781088,40.547675 87.868558,68.806609 60.387227,56.292999 56.51414,52.011349 61.07879,37.851995 66.72335,36.638638 59.654061,25.405889 56.514133,7.694056 60.933467,3.978839 Z"
     id="path650"
     inkscape:connector-curvature="0"
     style="fill:none;stroke:#000000;stroke-width:0.30000001;stroke-linecap:butt;stroke-linejoin:bevel;stroke-dasharray:none;stroke-dashoffset:0;stroke-opacity:1" />
  <g
     id="g658"
     transform="translate(-20.608322,-49.460371)">
    <path
       transform="matrix(4.550453,2.072047,-2.072047,4.550453,94.736216,112.01018)"
       class="arrow"
       d="M 0,0 1,1 0,0.25 -1,1 Z"
       id="path652"
       inkscape:connector-curvature="0"
       style="fill:#000000;stroke-linecap:butt;stroke-linejoin:bevel;stroke-dasharray:none" />
    <text
       transform="translate(92.871373,118.10559)"
       style="font-style:normal;font-size:5px;text-anchor:middle;fill:#000000;fill-opacity:1;stroke:none"
       id="text656">
      <tspan
         id="tspan654"
         style="text-anchor:middle">1</tspan>
    </text>
  </g>
  <g
     id="g666"
     transform="translate(-20.608322,-49.460371)">
    <path
       transform="matrix(-0.54305,-4.970422,4.970422,-0.54305,106.93314,104.13752)"
       class="arrow"
       d="M 0,0 1,1 0,0.25 -1,1 Z"
       id="path660"
       inkscape:connector-curvature="0"
       style="fill:#000000;stroke-linecap:butt;stroke-linejoin:bevel;stroke-dasharray:none" />
    <text
       transform="translate(111.40653,105.64878)"
       style="font-style:normal;font-size:5px;text-anchor:middle;fill:#000000;fill-opacity:1;stroke:none"
       id="text664">
      <tspan
         id="tspan662"
         style="text-anchor:middle">2</tspan>
    </text>
  </g>
  <g
     id="g674"
     transform="translate(-20.608322,-49.460371)">
    <path
       transform="matrix(-3.380391,-3.68415,3.68415,-3.380391,100.38199,84.550674)"
       class="arrow"
       d="M 0,0 1,1 0,0.25 -1,1 Z"
       id="path668"
       inkscape:connector-curvature="0"
       style="fill:#000000;stroke-linecap:butt;stroke-linejoin:bevel;stroke-dasharray:none" />
    <text
       transform="translate(103.69772,83.508323)"
       style="font-style:normal;font-size:5px;text-anchor:middle;fill:#000000;fill-opacity:1;stroke:none"
       id="text672">
      <tspan
         id="tspan670"
         style="text-anchor:middle">3</tspan>
    </text>
  </g>
  <text
     transform="rotate(-72.131826)"
     style="font-style:normal;font-size:4.5px;text-anchor:middle;fill:#000000;fill-opacity:1;stroke:none"
     id="text678"
     x="-24.723991"
     y="73.84671">
    <tspan
       id="tspan676"
       style="text-anchor:middle">2AI:3</tspan>
  </text>
  <text
     transform="rotate(-100.05288)"
     style="font-style:normal;font-size:4.5px;text-anchor:middle;fill:#000000;fill-opacity:1;stroke:none"
     id="text682"
     x="-31.138628"
     y="58.403423">
    <tspan
       id="tspan680"
       style="text-anchor:middle">2AC:2</tspan>
  </text>
  <g
     id="g690"
     transform="translate(-20.608322,-49.460371)">
    <path
       transform="matrix(-2.373033,-4.400991,4.400991,-2.373033,88.458178,66.266264)"
       class="arrow"
       d="M 0,0 1,1 0,0.25 -1,1 Z"
       id="path684"
       inkscape:connector-curvature="0"
       style="fill:#000000;stroke-linecap:butt;stroke-linejoin:bevel;stroke-dasharray:none" />
    <text
       transform="translate(92.41907,66.130529)"
       style="font-style:normal;font-size:5px;text-anchor:middle;fill:#000000;fill-opacity:1;stroke:none"
       id="text688">
      <tspan
         id="tspan686"
         style="text-anchor:middle">4</tspan>
    </text>
  </g>
  <text
     transform="rotate(-24.335899)"
     style="font-style:normal;font-size:5px;text-anchor:middle;fill:#000000;fill-opacity:1;stroke:none"
     id="text1104"
     x="142.4817"
     y="133.03711">
    <tspan
       id="tspan1102"
       style="text-anchor:middle">[3] 3</tspan>
  </text>
  <path
     class="sticker"
     d="m 176.16995,60.222657 -4.97156,-2.935464 0.28065,-28.723516 5.02795,-2.83777 z"
     id="path1106"
     inkscape:connector-curvature="0"
     style="fill:#e5e5e5;fill-opacity:1;stroke:none;stroke-linecap:butt;stroke-linejoin:bevel;stroke-dasharray:none" />
  <path
     class="convex"
     d="m 176.50699,25.725907 4.90006,17.656239 m 3.3632,-4.936024 -8.26326,-12.720215 m 14.55726,10.897755 -14.55726,-10.897755 m 0,0 -0.33704,34.49675 m 0,0 5.2371,-16.840511 m 14.92285,15.957949 -20.15995,0.882562 m 12.9715,-8.449854 -12.9715,8.449854 m 9.60897,-40.856327 -9.27193,6.359577 m 0,0 14.35276,-0.20249"
     id="path1108"
     inkscape:connector-curvature="0"
     style="fill:none;stroke:#000000;stroke-width:0.2;stroke-linecap:butt;stroke-linejoin:bevel;stroke-dasharray:0.5, 1;stroke-dashoffset:0;stroke-opacity:1" />
  <path
     class="concave"
     d="M 198.70894,32.703665 176.50699,25.725907"
     id="path1110"
     inkscape:connector-curvature="0"
     style="fill:none;stroke:#000000;stroke-width:0.2;stroke-linecap:butt;stroke-linejoin:bevel;stroke-dasharray:1, 0.5, 0.2, 0.5;stroke-dashoffset:0;stroke-opacity:1" />
  <path
     class="outer"
     d="m 184.77025,38.446122 -3.3632,4.936024 2.03538,5.32725 5.69902,3.063407 7.18845,7.567292 -18.9219,11.322188 -1.23805,-10.439626 -4.97156,-2.935464 0.28065,-28.723516 5.02795,-2.83777 -2.50978,-17.809118 11.78171,11.449541 5.08083,6.157087 7.84919,7.180248 -7.64469,3.919997 z"
     id="path1112"
     inkscape:connector-curvature="0"
     style="fill:none;stroke:#000000;stroke-width:0.30000001;stroke-linecap:butt;stroke-linejoin:bevel;stroke-dasharray:none;stroke-dashoffset:0;stroke-opacity:1" />
  <g
     id="g1120"
     transform="rotate(-24.335899,-5.9473038,-137.21975)">
    <path
       transform="matrix(-1.64379,-4.722071,4.722071,-1.64379,95.641513,120.30172)"
       class="arrow"
       d="M 0,0 1,1 0,0.25 -1,1 Z"
       id="path1114"
       inkscape:connector-curvature="0"
       style="fill:#000000;stroke-linecap:butt;stroke-linejoin:bevel;stroke-dasharray:none" />
    <text
       transform="translate(99.891369,120.82231)"
       style="font-style:normal;font-size:5px;text-anchor:middle;fill:#000000;fill-opacity:1;stroke:none"
       id="text1118">
      <tspan
         id="tspan1116"
         style="text-anchor:middle">1</tspan>
    </text>
  </g>
  <g
     id="g1128"
     transform="rotate(-24.335899,-5.9473038,-137.21975)">
    <path
       transform="matrix(4.993981,-0.245271,0.245271,4.993981,106.21092,102.15172)"
       class="arrow"
       d="M 0,0 1,1 0,0.25 -1,1 Z"
       id="path1122"
       inkscape:connector-curvature="0"
       style="fill:#000000;stroke-linecap:butt;stroke-linejoin:bevel;stroke-dasharray:none" />
    <text
       transform="translate(106.43167,108.6463)"
       style="font-style:normal;font-size:5px;text-anchor:middle;fill:#000000;fill-opacity:1;stroke:none"
       id="text1126">
      <tspan
         id="tspan1124"
         style="text-anchor:middle">2</tspan>
    </text>
  </g>
  <g
     id="g1136"
     transform="rotate(-24.335899,-5.9473038,-137.21975)">
    <path
       transform="matrix(-1.404522,4.798679,-4.798679,-1.404522,95.673603,77.803682)"
       class="arrow"
       d="M 0,0 1,1 0,0.25 -1,1 Z"
       id="path1130"
       inkscape:connector-curvature="0"
       style="fill:#000000;stroke-linecap:butt;stroke-linejoin:bevel;stroke-dasharray:none" />
    <text
       transform="translate(91.354792,78.53962)"
       style="font-style:normal;font-size:5px;text-anchor:middle;fill:#000000;fill-opacity:1;stroke:none"
       id="text1134">
      <tspan
         id="tspan1132"
         style="text-anchor:middle">3</tspan>
    </text>
  </g>
  <g
     id="g1144"
     transform="rotate(-24.335899,-5.9473038,-137.21975)">
    <path
       transform="matrix(-1.509579,4.766673,-4.766673,-1.509579,77.037868,122.73791)"
       class="arrow"
       d="M 0,0 1,1 0,0.25 -1,1 Z"
       id="path1138"
       inkscape:connector-curvature="0"
       style="fill:#000000;stroke-linecap:butt;stroke-linejoin:bevel;stroke-dasharray:none" />
    <text
       transform="translate(72.747861,123.37928)"
       style="font-style:normal;font-size:5px;text-anchor:middle;fill:#000000;fill-opacity:1;stroke:none"
       id="text1142">
      <tspan
         id="tspan1140"
         style="text-anchor:middle">4</tspan>
    </text>
  </g>
  <text
     transform="rotate(30.306151)"
     style="font-style:normal;font-size:5px;text-anchor:middle;fill:#000000;fill-opacity:1;stroke:none"
     id="text1248"
     x="162.32874"
     y="-19.049114">
    <tspan
       id="tspan1246"
       style="text-anchor:middle">[3AB] 3</tspan>
  </text>
  <path
     class="sticker"
     d="m 159.05315,27.575881 5.05684,2.785973 0.57571,28.719117 -4.94114,2.986367 z"
     id="path1250"
     inkscape:connector-curvature="0"
     style="fill:#e5e5e5;fill-opacity:1;stroke:none;stroke-linecap:butt;stroke-linejoin:bevel;stroke-dasharray:none" />
  <path
     class="convex"
     d="M 159.05315,27.575881 144.6086,38.622623 m 6.31242,1.757689 8.13213,-12.804431 m -4.71841,17.705648 4.71841,-17.705648 m -4.71841,17.705648 5.40982,16.785809 m 0,0 -0.69141,-34.491457 m 0.69141,34.491457 -13.05761,-8.316141 m -7.11032,7.640746 20.16793,0.675395 m -0.69141,-34.491457 -14.35407,-0.05502 m 14.35407,0.05502 -9.33677,-6.263971"
     id="path1252"
     inkscape:connector-curvature="0"
     style="fill:none;stroke:#000000;stroke-width:0.2;stroke-linecap:butt;stroke-linejoin:bevel;stroke-dasharray:0.5, 1;stroke-dashoffset:0;stroke-opacity:1" />
  <path
     class="concave"
     d="m 159.05315,27.575881 -22.12909,7.205471"
     id="path1254"
     inkscape:connector-curvature="0"
     style="fill:none;stroke:#000000;stroke-width:0.2;stroke-linecap:butt;stroke-linejoin:bevel;stroke-dasharray:1, 0.5, 0.2, 0.5;stroke-dashoffset:0;stroke-opacity:1" />
  <path
     class="outer"
     d="m 139.57663,61.391943 7.11032,-7.640746 5.66724,-3.121805 1.98055,-5.347863 -3.41372,-4.901217 -6.31242,-1.757689 -7.68454,-3.841271 7.77502,-7.260487 5.0173,-6.208955 11.66347,-11.5699924 -2.3267,17.8339634 5.05684,2.785973 0.57571,28.719117 -4.94114,2.986367 -1.13073,10.451791 z"
     id="path1256"
     inkscape:connector-curvature="0"
     style="fill:none;stroke:#000000;stroke-width:0.30000001;stroke-linecap:butt;stroke-linejoin:bevel;stroke-dasharray:none;stroke-dashoffset:0;stroke-opacity:1" />
  <g
     id="g1264"
     transform="rotate(30.306151,115.99574,161.50027)">
    <path
       transform="matrix(4.989311,-0.326767,0.326767,4.989311,74.405474,41.256989)"
       class="arrow"
       d="M 0,0 1,1 0,0.25 -1,1 Z"
       id="path1258"
       inkscape:connector-curvature="0"
       style="fill:#000000;stroke-linecap:butt;stroke-linejoin:bevel;stroke-dasharray:none" />
    <text
       transform="translate(74.699563,47.747384)"
       style="font-style:normal;font-size:5px;text-anchor:middle;fill:#000000;fill-opacity:1;stroke:none"
       id="text1262">
      <tspan
         id="tspan1260"
         style="text-anchor:middle">1</tspan>
    </text>
  </g>
  <g
     id="g1272"
     transform="rotate(30.306151,115.99574,161.50027)">
    <path
       transform="matrix(-1.943456,-4.60684,4.60684,-1.943456,82.092692,15.864725)"
       class="arrow"
       d="M 0,0 1,1 0,0.25 -1,1 Z"
       id="path1266"
       inkscape:connector-curvature="0"
       style="fill:#000000;stroke-linecap:butt;stroke-linejoin:bevel;stroke-dasharray:none" />
    <text
       transform="translate(86.238851,16.115601)"
       style="font-style:normal;font-size:5px;text-anchor:middle;fill:#000000;fill-opacity:1;stroke:none"
       id="text1270">
      <tspan
         id="tspan1268"
         style="text-anchor:middle">2</tspan>
    </text>
  </g>
  <g
     id="g1280"
     transform="rotate(30.306151,115.99574,161.50027)">
    <path
       transform="matrix(-1.093654,4.878926,-4.878926,-1.093654,86.978872,58.080922)"
       class="arrow"
       d="M 0,0 1,1 0,0.25 -1,1 Z"
       id="path1274"
       inkscape:connector-curvature="0"
       style="fill:#000000;stroke-linecap:butt;stroke-linejoin:bevel;stroke-dasharray:none" />
    <text
       transform="translate(82.587843,59.096645)"
       style="font-style:normal;font-size:5px;text-anchor:middle;fill:#000000;fill-opacity:1;stroke:none"
       id="text1278">
      <tspan
         id="tspan1276"
         style="text-anchor:middle">3</tspan>
    </text>
  </g>
  <g
     id="g1288"
     transform="rotate(30.306151,115.99574,161.50027)">
    <path
       transform="matrix(-2.044168,-4.563044,4.563044,-2.044168,105.73902,58.376188)"
       class="arrow"
       d="M 0,0 1,1 0,0.25 -1,1 Z"
       id="path1282"
       inkscape:connector-curvature="0"
       style="fill:#000000;stroke-linecap:butt;stroke-linejoin:bevel;stroke-dasharray:none" />
    <text
       transform="translate(109.84576,58.536435)"
       style="font-style:normal;font-size:5px;text-anchor:middle;fill:#000000;fill-opacity:1;stroke:none"
       id="text1286">
      <tspan
         id="tspan1284"
         style="text-anchor:middle">4</tspan>
    </text>
  </g>
  <text
     style="font-style:normal;font-size:5px;text-anchor:middle;fill:#000000;fill-opacity:1;stroke:none"
     id="text1860"
     x="114.46985"
     y="54.892124">
    <tspan
       id="tspan1858"
       style="text-anchor:middle">[3AC] 3</tspan>
  </text>
  <path
     class="sticker"
     d="m 135.22944,5.145077 3.72293,4.412815 -6.10706,16.919568 -8.87701,9.866502 z m -11.26115,31.198885 5.35589,2.15586 2.08953,14.72947 -4.54499,3.56039 z"
     id="path1862"
     inkscape:connector-curvature="0"
     style="fill:#e5e5e5;fill-opacity:1;stroke:none;stroke-linecap:butt;stroke-linejoin:bevel;stroke-dasharray:none" />
  <path
     class="convex"
     d="m 105.50879,37.124292 21.35993,19.66539 m -2.90043,-20.44572 -18.4595,0.78033 m 18.4595,-0.78033 -6.73396,-8.271764"
     id="path1864"
     inkscape:connector-curvature="0"
     style="fill:none;stroke:#000000;stroke-width:0.2;stroke-linecap:butt;stroke-linejoin:bevel;stroke-dasharray:0.5, 1;stroke-dashoffset:0;stroke-opacity:1" />
  <path
     class="concave"
     d="m 126.86873,56.789682 -2.90043,-20.44572 m 0,0 11.26115,-31.198885"
     id="path1866"
     inkscape:connector-curvature="0"
     style="fill:none;stroke:#000000;stroke-width:0.2;stroke-linecap:butt;stroke-linejoin:bevel;stroke-dasharray:1, 0.5, 0.2, 0.5;stroke-dashoffset:0;stroke-opacity:1" />
  <path
     class="outer"
     d="m 97.659295,64.446172 7.849505,-27.32188 11.72554,-9.052094 17.99511,-22.927121 3.72293,4.412815 -6.10706,16.919568 -8.87702,9.866502 5.35589,2.15586 2.08953,14.72947 -4.54499,3.56039 z"
     id="path1868"
     inkscape:connector-curvature="0"
     style="fill:none;stroke:#000000;stroke-width:0.30000001;stroke-linecap:butt;stroke-linejoin:bevel;stroke-dasharray:none;stroke-dashoffset:0;stroke-opacity:1" />
  <g
     id="g1876"
     transform="translate(-63.743055,-64.620918)">
    <path
       transform="matrix(4.836602,-1.267787,1.267787,4.836602,176.00707,125.23886)"
       class="arrow"
       d="M 0,0 1,1 0,0.25 -1,1 Z"
       id="path1870"
       inkscape:connector-curvature="0"
       style="fill:#000000;stroke-linecap:butt;stroke-linejoin:bevel;stroke-dasharray:none" />
    <text
       transform="translate(177.14808,131.59179)"
       style="font-style:normal;font-size:5px;text-anchor:middle;fill:#000000;fill-opacity:1;stroke:none"
       id="text1874">
      <tspan
         id="tspan1872"
         style="text-anchor:middle">1</tspan>
    </text>
  </g>
  <text
     transform="rotate(109.8469)"
     style="font-style:normal;font-size:4.5px;text-anchor:middle;fill:#000000;fill-opacity:1;stroke:none"
     id="text1880"
     x="-24.487499"
     y="-129.84406">
    <tspan
       id="tspan1878"
       style="text-anchor:middle">2AC:1</tspan>
  </text>
  <text
     transform="rotate(81.92588)"
     style="font-style:normal;font-size:4.5px;text-anchor:middle;fill:#000000;fill-opacity:1;stroke:none"
     id="text1884"
     x="63.72076"
     y="-118.53481">
    <tspan
       id="tspan1882"
       style="text-anchor:middle">2AB:4</tspan>
  </text>
  <g
     id="g1892"
     transform="translate(-63.743055,-64.620918)">
    <path
       transform="matrix(-1.380635,4.805606,-4.805606,-1.380635,165.32709,115.40615)"
       class="arrow"
       d="M 0,0 1,1 0,0.25 -1,1 Z"
       id="path1886"
       inkscape:connector-curvature="0"
       style="fill:#000000;stroke-linecap:butt;stroke-linejoin:bevel;stroke-dasharray:none" />
    <text
       transform="translate(161.00206,116.16359)"
       style="font-style:normal;font-size:5px;text-anchor:middle;fill:#000000;fill-opacity:1;stroke:none"
       id="text1890">
      <tspan
         id="tspan1888"
         style="text-anchor:middle">2</tspan>
    </text>
  </g>
  <g
     id="g1900"
     transform="translate(-63.743055,-64.620918)">
    <path
       transform="matrix(-3.957822,3.055429,-3.055429,-3.957822,175.11462,97.219164)"
       class="arrow"
       d="M 0,0 1,1 0,0.25 -1,1 Z"
       id="path1894"
       inkscape:connector-curvature="0"
       style="fill:#000000;stroke-linecap:butt;stroke-linejoin:bevel;stroke-dasharray:none" />
    <text
       transform="translate(172.36473,95.657135)"
       style="font-style:normal;font-size:5px;text-anchor:middle;fill:#000000;fill-opacity:1;stroke:none"
       id="text1898">
      <tspan
         id="tspan1896"
         style="text-anchor:middle">3</tspan>
    </text>
  </g>
  <g
     id="g1908"
     transform="translate(-63.743055,-64.620918)">
    <path
       transform="matrix(-3.087085,3.93318,-3.93318,-3.087085,189.97494,81.229563)"
       class="arrow"
       d="M 0,0 1,1 0,0.25 -1,1 Z"
       id="path1902"
       inkscape:connector-curvature="0"
       style="fill:#000000;stroke-linecap:butt;stroke-linejoin:bevel;stroke-dasharray:none" />
    <text
       transform="translate(186.43508,80.451186)"
       style="font-style:normal;font-size:5px;text-anchor:middle;fill:#000000;fill-opacity:1;stroke:none"
       id="text1906">
      <tspan
         id="tspan1904"
         style="text-anchor:middle">4</tspan>
    </text>
  </g>
</svg>
